<?xml version="1.0" encoding="utf-8" standalone="no"?>
<!DOCTYPE svg PUBLIC "-//W3C//DTD SVG 1.1//EN"
  "http://www.w3.org/Graphics/SVG/1.1/DTD/svg11.dtd">
<svg xmlns:xlink="http://www.w3.org/1999/xlink" width="720pt" height="432pt" viewBox="0 0 720 432" xmlns="http://www.w3.org/2000/svg" version="1.1">
 <metadata>
  <rdf:RDF xmlns:dc="http://purl.org/dc/elements/1.1/" xmlns:cc="http://creativecommons.org/ns#" xmlns:rdf="http://www.w3.org/1999/02/22-rdf-syntax-ns#">
   <cc:Work>
    <dc:type rdf:resource="http://purl.org/dc/dcmitype/StillImage"/>
    <dc:date>2025-05-13T23:21:41.075902</dc:date>
    <dc:format>image/svg+xml</dc:format>
    <dc:creator>
     <cc:Agent>
      <dc:title>Matplotlib v3.10.1, https://matplotlib.org/</dc:title>
     </cc:Agent>
    </dc:creator>
   </cc:Work>
  </rdf:RDF>
 </metadata>
 <defs>
  <style type="text/css">*{stroke-linejoin: round; stroke-linecap: butt}</style>
 </defs>
 <g id="figure_1">
  <g id="patch_1">
   <path d="M 0 432 
L 720 432 
L 720 0 
L 0 0 
z
" style="fill: #ffffff"/>
  </g>
  <g id="axes_1">
   <g id="patch_2">
    <path d="M 50.6 387.16 
L 703.774183 387.16 
L 703.774183 39.84 
L 50.6 39.84 
z
" style="fill: #ffffff"/>
   </g>
   <g id="matplotlib.axis_1">
    <g id="xtick_1">
     <g id="line2d_1">
      <path d="M 50.6 387.16 
L 50.6 39.84 
" clip-path="url(#pe892d72fb0)" style="fill: none; stroke-dasharray: 1.85,0.8; stroke-dashoffset: 0; stroke: #808080; stroke-width: 0.5"/>
     </g>
     <g id="line2d_2">
      <defs>
       <path id="m557af1ab47" d="M 0 0 
L 0 3.5 
" style="stroke: #000000; stroke-width: 0.8"/>
      </defs>
      <g>
       <use xlink:href="#m557af1ab47" x="50.6" y="387.16" style="stroke: #000000; stroke-width: 0.8"/>
      </g>
     </g>
     <g id="text_1">
      <!-- 0 -->
      <g transform="translate(47.41875 401.758438) scale(0.1 -0.1)">
       <defs>
        <path id="DejaVuSans-30" d="M 2034 4250 
Q 1547 4250 1301 3770 
Q 1056 3291 1056 2328 
Q 1056 1369 1301 889 
Q 1547 409 2034 409 
Q 2525 409 2770 889 
Q 3016 1369 3016 2328 
Q 3016 3291 2770 3770 
Q 2525 4250 2034 4250 
z
M 2034 4750 
Q 2819 4750 3233 4129 
Q 3647 3509 3647 2328 
Q 3647 1150 3233 529 
Q 2819 -91 2034 -91 
Q 1250 -91 836 529 
Q 422 1150 422 2328 
Q 422 3509 836 4129 
Q 1250 4750 2034 4750 
z
" transform="scale(0.015625)"/>
       </defs>
       <use xlink:href="#DejaVuSans-30"/>
      </g>
     </g>
    </g>
    <g id="xtick_2">
     <g id="line2d_3">
      <path d="M 159.283037 387.16 
L 159.283037 39.84 
" clip-path="url(#pe892d72fb0)" style="fill: none; stroke-dasharray: 1.85,0.8; stroke-dashoffset: 0; stroke: #808080; stroke-width: 0.5"/>
     </g>
     <g id="line2d_4">
      <g>
       <use xlink:href="#m557af1ab47" x="159.283037" y="387.16" style="stroke: #000000; stroke-width: 0.8"/>
      </g>
     </g>
     <g id="text_2">
      <!-- 2 -->
      <g transform="translate(156.101787 401.758438) scale(0.1 -0.1)">
       <defs>
        <path id="DejaVuSans-32" d="M 1228 531 
L 3431 531 
L 3431 0 
L 469 0 
L 469 531 
Q 828 903 1448 1529 
Q 2069 2156 2228 2338 
Q 2531 2678 2651 2914 
Q 2772 3150 2772 3378 
Q 2772 3750 2511 3984 
Q 2250 4219 1831 4219 
Q 1534 4219 1204 4116 
Q 875 4013 500 3803 
L 500 4441 
Q 881 4594 1212 4672 
Q 1544 4750 1819 4750 
Q 2544 4750 2975 4387 
Q 3406 4025 3406 3419 
Q 3406 3131 3298 2873 
Q 3191 2616 2906 2266 
Q 2828 2175 2409 1742 
Q 1991 1309 1228 531 
z
" transform="scale(0.015625)"/>
       </defs>
       <use xlink:href="#DejaVuSans-32"/>
      </g>
     </g>
    </g>
    <g id="xtick_3">
     <g id="line2d_5">
      <path d="M 267.966074 387.16 
L 267.966074 39.84 
" clip-path="url(#pe892d72fb0)" style="fill: none; stroke-dasharray: 1.85,0.8; stroke-dashoffset: 0; stroke: #808080; stroke-width: 0.5"/>
     </g>
     <g id="line2d_6">
      <g>
       <use xlink:href="#m557af1ab47" x="267.966074" y="387.16" style="stroke: #000000; stroke-width: 0.8"/>
      </g>
     </g>
     <g id="text_3">
      <!-- 4 -->
      <g transform="translate(264.784824 401.758438) scale(0.1 -0.1)">
       <defs>
        <path id="DejaVuSans-34" d="M 2419 4116 
L 825 1625 
L 2419 1625 
L 2419 4116 
z
M 2253 4666 
L 3047 4666 
L 3047 1625 
L 3713 1625 
L 3713 1100 
L 3047 1100 
L 3047 0 
L 2419 0 
L 2419 1100 
L 313 1100 
L 313 1709 
L 2253 4666 
z
" transform="scale(0.015625)"/>
       </defs>
       <use xlink:href="#DejaVuSans-34"/>
      </g>
     </g>
    </g>
    <g id="xtick_4">
     <g id="line2d_7">
      <path d="M 376.649111 387.16 
L 376.649111 39.84 
" clip-path="url(#pe892d72fb0)" style="fill: none; stroke-dasharray: 1.85,0.8; stroke-dashoffset: 0; stroke: #808080; stroke-width: 0.5"/>
     </g>
     <g id="line2d_8">
      <g>
       <use xlink:href="#m557af1ab47" x="376.649111" y="387.16" style="stroke: #000000; stroke-width: 0.8"/>
      </g>
     </g>
     <g id="text_4">
      <!-- 6 -->
      <g transform="translate(373.467861 401.758438) scale(0.1 -0.1)">
       <defs>
        <path id="DejaVuSans-36" d="M 2113 2584 
Q 1688 2584 1439 2293 
Q 1191 2003 1191 1497 
Q 1191 994 1439 701 
Q 1688 409 2113 409 
Q 2538 409 2786 701 
Q 3034 994 3034 1497 
Q 3034 2003 2786 2293 
Q 2538 2584 2113 2584 
z
M 3366 4563 
L 3366 3988 
Q 3128 4100 2886 4159 
Q 2644 4219 2406 4219 
Q 1781 4219 1451 3797 
Q 1122 3375 1075 2522 
Q 1259 2794 1537 2939 
Q 1816 3084 2150 3084 
Q 2853 3084 3261 2657 
Q 3669 2231 3669 1497 
Q 3669 778 3244 343 
Q 2819 -91 2113 -91 
Q 1303 -91 875 529 
Q 447 1150 447 2328 
Q 447 3434 972 4092 
Q 1497 4750 2381 4750 
Q 2619 4750 2861 4703 
Q 3103 4656 3366 4563 
z
" transform="scale(0.015625)"/>
       </defs>
       <use xlink:href="#DejaVuSans-36"/>
      </g>
     </g>
    </g>
    <g id="xtick_5">
     <g id="line2d_9">
      <path d="M 485.332148 387.16 
L 485.332148 39.84 
" clip-path="url(#pe892d72fb0)" style="fill: none; stroke-dasharray: 1.85,0.8; stroke-dashoffset: 0; stroke: #808080; stroke-width: 0.5"/>
     </g>
     <g id="line2d_10">
      <g>
       <use xlink:href="#m557af1ab47" x="485.332148" y="387.16" style="stroke: #000000; stroke-width: 0.8"/>
      </g>
     </g>
     <g id="text_5">
      <!-- 8 -->
      <g transform="translate(482.150898 401.758438) scale(0.1 -0.1)">
       <defs>
        <path id="DejaVuSans-38" d="M 2034 2216 
Q 1584 2216 1326 1975 
Q 1069 1734 1069 1313 
Q 1069 891 1326 650 
Q 1584 409 2034 409 
Q 2484 409 2743 651 
Q 3003 894 3003 1313 
Q 3003 1734 2745 1975 
Q 2488 2216 2034 2216 
z
M 1403 2484 
Q 997 2584 770 2862 
Q 544 3141 544 3541 
Q 544 4100 942 4425 
Q 1341 4750 2034 4750 
Q 2731 4750 3128 4425 
Q 3525 4100 3525 3541 
Q 3525 3141 3298 2862 
Q 3072 2584 2669 2484 
Q 3125 2378 3379 2068 
Q 3634 1759 3634 1313 
Q 3634 634 3220 271 
Q 2806 -91 2034 -91 
Q 1263 -91 848 271 
Q 434 634 434 1313 
Q 434 1759 690 2068 
Q 947 2378 1403 2484 
z
M 1172 3481 
Q 1172 3119 1398 2916 
Q 1625 2713 2034 2713 
Q 2441 2713 2670 2916 
Q 2900 3119 2900 3481 
Q 2900 3844 2670 4047 
Q 2441 4250 2034 4250 
Q 1625 4250 1398 4047 
Q 1172 3844 1172 3481 
z
" transform="scale(0.015625)"/>
       </defs>
       <use xlink:href="#DejaVuSans-38"/>
      </g>
     </g>
    </g>
    <g id="xtick_6">
     <g id="line2d_11">
      <path d="M 594.015184 387.16 
L 594.015184 39.84 
" clip-path="url(#pe892d72fb0)" style="fill: none; stroke-dasharray: 1.85,0.8; stroke-dashoffset: 0; stroke: #808080; stroke-width: 0.5"/>
     </g>
     <g id="line2d_12">
      <g>
       <use xlink:href="#m557af1ab47" x="594.015184" y="387.16" style="stroke: #000000; stroke-width: 0.8"/>
      </g>
     </g>
     <g id="text_6">
      <!-- 10 -->
      <g transform="translate(587.652684 401.758438) scale(0.1 -0.1)">
       <defs>
        <path id="DejaVuSans-31" d="M 794 531 
L 1825 531 
L 1825 4091 
L 703 3866 
L 703 4441 
L 1819 4666 
L 2450 4666 
L 2450 531 
L 3481 531 
L 3481 0 
L 794 0 
L 794 531 
z
" transform="scale(0.015625)"/>
       </defs>
       <use xlink:href="#DejaVuSans-31"/>
       <use xlink:href="#DejaVuSans-30" transform="translate(63.623047 0)"/>
      </g>
     </g>
    </g>
    <g id="xtick_7">
     <g id="line2d_13">
      <path d="M 702.698221 387.16 
L 702.698221 39.84 
" clip-path="url(#pe892d72fb0)" style="fill: none; stroke-dasharray: 1.85,0.8; stroke-dashoffset: 0; stroke: #808080; stroke-width: 0.5"/>
     </g>
     <g id="line2d_14">
      <g>
       <use xlink:href="#m557af1ab47" x="702.698221" y="387.16" style="stroke: #000000; stroke-width: 0.8"/>
      </g>
     </g>
     <g id="text_7">
      <!-- 12 -->
      <g transform="translate(696.335721 401.758438) scale(0.1 -0.1)">
       <use xlink:href="#DejaVuSans-31"/>
       <use xlink:href="#DejaVuSans-32" transform="translate(63.623047 0)"/>
      </g>
     </g>
    </g>
    <g id="xtick_8">
     <g id="line2d_15">
      <path d="M 77.770759 387.16 
L 77.770759 39.84 
" clip-path="url(#pe892d72fb0)" style="fill: none; stroke-dasharray: 0.5,0.825; stroke-dashoffset: 0; stroke: #d3d3d3; stroke-width: 0.5"/>
     </g>
     <g id="line2d_16">
      <defs>
       <path id="m754c5c5856" d="M 0 0 
L 0 2 
" style="stroke: #000000; stroke-width: 0.6"/>
      </defs>
      <g>
       <use xlink:href="#m754c5c5856" x="77.770759" y="387.16" style="stroke: #000000; stroke-width: 0.6"/>
      </g>
     </g>
    </g>
    <g id="xtick_9">
     <g id="line2d_17">
      <path d="M 104.941518 387.16 
L 104.941518 39.84 
" clip-path="url(#pe892d72fb0)" style="fill: none; stroke-dasharray: 0.5,0.825; stroke-dashoffset: 0; stroke: #d3d3d3; stroke-width: 0.5"/>
     </g>
     <g id="line2d_18">
      <g>
       <use xlink:href="#m754c5c5856" x="104.941518" y="387.16" style="stroke: #000000; stroke-width: 0.6"/>
      </g>
     </g>
    </g>
    <g id="xtick_10">
     <g id="line2d_19">
      <path d="M 132.112278 387.16 
L 132.112278 39.84 
" clip-path="url(#pe892d72fb0)" style="fill: none; stroke-dasharray: 0.5,0.825; stroke-dashoffset: 0; stroke: #d3d3d3; stroke-width: 0.5"/>
     </g>
     <g id="line2d_20">
      <g>
       <use xlink:href="#m754c5c5856" x="132.112278" y="387.16" style="stroke: #000000; stroke-width: 0.6"/>
      </g>
     </g>
    </g>
    <g id="xtick_11">
     <g id="line2d_21">
      <path d="M 186.453796 387.16 
L 186.453796 39.84 
" clip-path="url(#pe892d72fb0)" style="fill: none; stroke-dasharray: 0.5,0.825; stroke-dashoffset: 0; stroke: #d3d3d3; stroke-width: 0.5"/>
     </g>
     <g id="line2d_22">
      <g>
       <use xlink:href="#m754c5c5856" x="186.453796" y="387.16" style="stroke: #000000; stroke-width: 0.6"/>
      </g>
     </g>
    </g>
    <g id="xtick_12">
     <g id="line2d_23">
      <path d="M 213.624555 387.16 
L 213.624555 39.84 
" clip-path="url(#pe892d72fb0)" style="fill: none; stroke-dasharray: 0.5,0.825; stroke-dashoffset: 0; stroke: #d3d3d3; stroke-width: 0.5"/>
     </g>
     <g id="line2d_24">
      <g>
       <use xlink:href="#m754c5c5856" x="213.624555" y="387.16" style="stroke: #000000; stroke-width: 0.6"/>
      </g>
     </g>
    </g>
    <g id="xtick_13">
     <g id="line2d_25">
      <path d="M 240.795315 387.16 
L 240.795315 39.84 
" clip-path="url(#pe892d72fb0)" style="fill: none; stroke-dasharray: 0.5,0.825; stroke-dashoffset: 0; stroke: #d3d3d3; stroke-width: 0.5"/>
     </g>
     <g id="line2d_26">
      <g>
       <use xlink:href="#m754c5c5856" x="240.795315" y="387.16" style="stroke: #000000; stroke-width: 0.6"/>
      </g>
     </g>
    </g>
    <g id="xtick_14">
     <g id="line2d_27">
      <path d="M 295.136833 387.16 
L 295.136833 39.84 
" clip-path="url(#pe892d72fb0)" style="fill: none; stroke-dasharray: 0.5,0.825; stroke-dashoffset: 0; stroke: #d3d3d3; stroke-width: 0.5"/>
     </g>
     <g id="line2d_28">
      <g>
       <use xlink:href="#m754c5c5856" x="295.136833" y="387.16" style="stroke: #000000; stroke-width: 0.6"/>
      </g>
     </g>
    </g>
    <g id="xtick_15">
     <g id="line2d_29">
      <path d="M 322.307592 387.16 
L 322.307592 39.84 
" clip-path="url(#pe892d72fb0)" style="fill: none; stroke-dasharray: 0.5,0.825; stroke-dashoffset: 0; stroke: #d3d3d3; stroke-width: 0.5"/>
     </g>
     <g id="line2d_30">
      <g>
       <use xlink:href="#m754c5c5856" x="322.307592" y="387.16" style="stroke: #000000; stroke-width: 0.6"/>
      </g>
     </g>
    </g>
    <g id="xtick_16">
     <g id="line2d_31">
      <path d="M 349.478351 387.16 
L 349.478351 39.84 
" clip-path="url(#pe892d72fb0)" style="fill: none; stroke-dasharray: 0.5,0.825; stroke-dashoffset: 0; stroke: #d3d3d3; stroke-width: 0.5"/>
     </g>
     <g id="line2d_32">
      <g>
       <use xlink:href="#m754c5c5856" x="349.478351" y="387.16" style="stroke: #000000; stroke-width: 0.6"/>
      </g>
     </g>
    </g>
    <g id="xtick_17">
     <g id="line2d_33">
      <path d="M 403.81987 387.16 
L 403.81987 39.84 
" clip-path="url(#pe892d72fb0)" style="fill: none; stroke-dasharray: 0.5,0.825; stroke-dashoffset: 0; stroke: #d3d3d3; stroke-width: 0.5"/>
     </g>
     <g id="line2d_34">
      <g>
       <use xlink:href="#m754c5c5856" x="403.81987" y="387.16" style="stroke: #000000; stroke-width: 0.6"/>
      </g>
     </g>
    </g>
    <g id="xtick_18">
     <g id="line2d_35">
      <path d="M 430.990629 387.16 
L 430.990629 39.84 
" clip-path="url(#pe892d72fb0)" style="fill: none; stroke-dasharray: 0.5,0.825; stroke-dashoffset: 0; stroke: #d3d3d3; stroke-width: 0.5"/>
     </g>
     <g id="line2d_36">
      <g>
       <use xlink:href="#m754c5c5856" x="430.990629" y="387.16" style="stroke: #000000; stroke-width: 0.6"/>
      </g>
     </g>
    </g>
    <g id="xtick_19">
     <g id="line2d_37">
      <path d="M 458.161388 387.16 
L 458.161388 39.84 
" clip-path="url(#pe892d72fb0)" style="fill: none; stroke-dasharray: 0.5,0.825; stroke-dashoffset: 0; stroke: #d3d3d3; stroke-width: 0.5"/>
     </g>
     <g id="line2d_38">
      <g>
       <use xlink:href="#m754c5c5856" x="458.161388" y="387.16" style="stroke: #000000; stroke-width: 0.6"/>
      </g>
     </g>
    </g>
    <g id="xtick_20">
     <g id="line2d_39">
      <path d="M 512.502907 387.16 
L 512.502907 39.84 
" clip-path="url(#pe892d72fb0)" style="fill: none; stroke-dasharray: 0.5,0.825; stroke-dashoffset: 0; stroke: #d3d3d3; stroke-width: 0.5"/>
     </g>
     <g id="line2d_40">
      <g>
       <use xlink:href="#m754c5c5856" x="512.502907" y="387.16" style="stroke: #000000; stroke-width: 0.6"/>
      </g>
     </g>
    </g>
    <g id="xtick_21">
     <g id="line2d_41">
      <path d="M 539.673666 387.16 
L 539.673666 39.84 
" clip-path="url(#pe892d72fb0)" style="fill: none; stroke-dasharray: 0.5,0.825; stroke-dashoffset: 0; stroke: #d3d3d3; stroke-width: 0.5"/>
     </g>
     <g id="line2d_42">
      <g>
       <use xlink:href="#m754c5c5856" x="539.673666" y="387.16" style="stroke: #000000; stroke-width: 0.6"/>
      </g>
     </g>
    </g>
    <g id="xtick_22">
     <g id="line2d_43">
      <path d="M 566.844425 387.16 
L 566.844425 39.84 
" clip-path="url(#pe892d72fb0)" style="fill: none; stroke-dasharray: 0.5,0.825; stroke-dashoffset: 0; stroke: #d3d3d3; stroke-width: 0.5"/>
     </g>
     <g id="line2d_44">
      <g>
       <use xlink:href="#m754c5c5856" x="566.844425" y="387.16" style="stroke: #000000; stroke-width: 0.6"/>
      </g>
     </g>
    </g>
    <g id="xtick_23">
     <g id="line2d_45">
      <path d="M 621.185944 387.16 
L 621.185944 39.84 
" clip-path="url(#pe892d72fb0)" style="fill: none; stroke-dasharray: 0.5,0.825; stroke-dashoffset: 0; stroke: #d3d3d3; stroke-width: 0.5"/>
     </g>
     <g id="line2d_46">
      <g>
       <use xlink:href="#m754c5c5856" x="621.185944" y="387.16" style="stroke: #000000; stroke-width: 0.6"/>
      </g>
     </g>
    </g>
    <g id="xtick_24">
     <g id="line2d_47">
      <path d="M 648.356703 387.16 
L 648.356703 39.84 
" clip-path="url(#pe892d72fb0)" style="fill: none; stroke-dasharray: 0.5,0.825; stroke-dashoffset: 0; stroke: #d3d3d3; stroke-width: 0.5"/>
     </g>
     <g id="line2d_48">
      <g>
       <use xlink:href="#m754c5c5856" x="648.356703" y="387.16" style="stroke: #000000; stroke-width: 0.6"/>
      </g>
     </g>
    </g>
    <g id="xtick_25">
     <g id="line2d_49">
      <path d="M 675.527462 387.16 
L 675.527462 39.84 
" clip-path="url(#pe892d72fb0)" style="fill: none; stroke-dasharray: 0.5,0.825; stroke-dashoffset: 0; stroke: #d3d3d3; stroke-width: 0.5"/>
     </g>
     <g id="line2d_50">
      <g>
       <use xlink:href="#m754c5c5856" x="675.527462" y="387.16" style="stroke: #000000; stroke-width: 0.6"/>
      </g>
     </g>
    </g>
    <g id="text_8">
     <!-- Время, с -->
     <g transform="translate(350.321154 416.95625) scale(0.12 -0.12)">
      <defs>
       <path id="DejaVuSans-412" d="M 1259 2228 
L 1259 519 
L 2272 519 
Q 2781 519 3026 730 
Q 3272 941 3272 1375 
Q 3272 1813 3026 2020 
Q 2781 2228 2272 2228 
L 1259 2228 
z
M 1259 4147 
L 1259 2741 
L 2194 2741 
Q 2656 2741 2882 2914 
Q 3109 3088 3109 3444 
Q 3109 3797 2882 3972 
Q 2656 4147 2194 4147 
L 1259 4147 
z
M 628 4666 
L 2241 4666 
Q 2963 4666 3353 4366 
Q 3744 4066 3744 3513 
Q 3744 3084 3544 2831 
Q 3344 2578 2956 2516 
Q 3422 2416 3680 2098 
Q 3938 1781 3938 1306 
Q 3938 681 3513 340 
Q 3088 0 2303 0 
L 628 0 
L 628 4666 
z
" transform="scale(0.015625)"/>
       <path id="DejaVuSans-440" d="M 1159 525 
L 1159 -1331 
L 581 -1331 
L 581 3500 
L 1159 3500 
L 1159 2969 
Q 1341 3281 1617 3432 
Q 1894 3584 2278 3584 
Q 2916 3584 3314 3078 
Q 3713 2572 3713 1747 
Q 3713 922 3314 415 
Q 2916 -91 2278 -91 
Q 1894 -91 1617 61 
Q 1341 213 1159 525 
z
M 3116 1747 
Q 3116 2381 2855 2742 
Q 2594 3103 2138 3103 
Q 1681 3103 1420 2742 
Q 1159 2381 1159 1747 
Q 1159 1113 1420 752 
Q 1681 391 2138 391 
Q 2594 391 2855 752 
Q 3116 1113 3116 1747 
z
" transform="scale(0.015625)"/>
       <path id="DejaVuSans-435" d="M 3597 1894 
L 3597 1613 
L 953 1613 
Q 991 1019 1311 708 
Q 1631 397 2203 397 
Q 2534 397 2845 478 
Q 3156 559 3463 722 
L 3463 178 
Q 3153 47 2828 -22 
Q 2503 -91 2169 -91 
Q 1331 -91 842 396 
Q 353 884 353 1716 
Q 353 2575 817 3079 
Q 1281 3584 2069 3584 
Q 2775 3584 3186 3129 
Q 3597 2675 3597 1894 
z
M 3022 2063 
Q 3016 2534 2758 2815 
Q 2500 3097 2075 3097 
Q 1594 3097 1305 2825 
Q 1016 2553 972 2059 
L 3022 2063 
z
" transform="scale(0.015625)"/>
       <path id="DejaVuSans-43c" d="M 581 3500 
L 1422 3500 
L 2416 1156 
L 3413 3500 
L 4247 3500 
L 4247 0 
L 3669 0 
L 3669 2950 
L 2703 672 
L 2128 672 
L 1159 2950 
L 1159 0 
L 581 0 
L 581 3500 
z
" transform="scale(0.015625)"/>
       <path id="DejaVuSans-44f" d="M 1181 2491 
Q 1181 2231 1381 2084 
Q 1581 1938 1953 1938 
L 2728 1938 
L 2728 3041 
L 1953 3041 
Q 1581 3041 1381 2897 
Q 1181 2753 1181 2491 
z
M 363 0 
L 1431 1534 
Q 1069 1616 828 1830 
Q 588 2044 588 2491 
Q 588 2997 923 3248 
Q 1259 3500 1938 3500 
L 3306 3500 
L 3306 0 
L 2728 0 
L 2728 1478 
L 2013 1478 
L 981 0 
L 363 0 
z
" transform="scale(0.015625)"/>
       <path id="DejaVuSans-2c" d="M 750 794 
L 1409 794 
L 1409 256 
L 897 -744 
L 494 -744 
L 750 256 
L 750 794 
z
" transform="scale(0.015625)"/>
       <path id="DejaVuSans-20" transform="scale(0.015625)"/>
       <path id="DejaVuSans-441" d="M 3122 3366 
L 3122 2828 
Q 2878 2963 2633 3030 
Q 2388 3097 2138 3097 
Q 1578 3097 1268 2742 
Q 959 2388 959 1747 
Q 959 1106 1268 751 
Q 1578 397 2138 397 
Q 2388 397 2633 464 
Q 2878 531 3122 666 
L 3122 134 
Q 2881 22 2623 -34 
Q 2366 -91 2075 -91 
Q 1284 -91 818 406 
Q 353 903 353 1747 
Q 353 2603 823 3093 
Q 1294 3584 2113 3584 
Q 2378 3584 2631 3529 
Q 2884 3475 3122 3366 
z
" transform="scale(0.015625)"/>
      </defs>
      <use xlink:href="#DejaVuSans-412"/>
      <use xlink:href="#DejaVuSans-440" transform="translate(68.603516 0)"/>
      <use xlink:href="#DejaVuSans-435" transform="translate(132.080078 0)"/>
      <use xlink:href="#DejaVuSans-43c" transform="translate(193.603516 0)"/>
      <use xlink:href="#DejaVuSans-44f" transform="translate(269.042969 0)"/>
      <use xlink:href="#DejaVuSans-2c" transform="translate(329.199219 0)"/>
      <use xlink:href="#DejaVuSans-20" transform="translate(360.986328 0)"/>
      <use xlink:href="#DejaVuSans-441" transform="translate(392.773438 0)"/>
     </g>
    </g>
   </g>
   <g id="matplotlib.axis_2">
    <g id="ytick_1">
     <g id="line2d_51">
      <path d="M 50.6 376.522877 
L 703.774183 376.522877 
" clip-path="url(#pe892d72fb0)" style="fill: none; stroke-dasharray: 1.85,0.8; stroke-dashoffset: 0; stroke: #808080; stroke-width: 0.5"/>
     </g>
     <g id="line2d_52">
      <defs>
       <path id="m306d46adfe" d="M 0 0 
L -3.5 0 
" style="stroke: #000000; stroke-width: 0.8"/>
      </defs>
      <g>
       <use xlink:href="#m306d46adfe" x="50.6" y="376.522877" style="stroke: #000000; stroke-width: 0.8"/>
      </g>
     </g>
     <g id="text_9">
      <!-- 0.0 -->
      <g transform="translate(27.696875 380.322096) scale(0.1 -0.1)">
       <defs>
        <path id="DejaVuSans-2e" d="M 684 794 
L 1344 794 
L 1344 0 
L 684 0 
L 684 794 
z
" transform="scale(0.015625)"/>
       </defs>
       <use xlink:href="#DejaVuSans-30"/>
       <use xlink:href="#DejaVuSans-2e" transform="translate(63.623047 0)"/>
       <use xlink:href="#DejaVuSans-30" transform="translate(95.410156 0)"/>
      </g>
     </g>
    </g>
    <g id="ytick_2">
     <g id="line2d_53">
      <path d="M 50.6 316.763758 
L 703.774183 316.763758 
" clip-path="url(#pe892d72fb0)" style="fill: none; stroke-dasharray: 1.85,0.8; stroke-dashoffset: 0; stroke: #808080; stroke-width: 0.5"/>
     </g>
     <g id="line2d_54">
      <g>
       <use xlink:href="#m306d46adfe" x="50.6" y="316.763758" style="stroke: #000000; stroke-width: 0.8"/>
      </g>
     </g>
     <g id="text_10">
      <!-- 0.5 -->
      <g transform="translate(27.696875 320.562976) scale(0.1 -0.1)">
       <defs>
        <path id="DejaVuSans-35" d="M 691 4666 
L 3169 4666 
L 3169 4134 
L 1269 4134 
L 1269 2991 
Q 1406 3038 1543 3061 
Q 1681 3084 1819 3084 
Q 2600 3084 3056 2656 
Q 3513 2228 3513 1497 
Q 3513 744 3044 326 
Q 2575 -91 1722 -91 
Q 1428 -91 1123 -41 
Q 819 9 494 109 
L 494 744 
Q 775 591 1075 516 
Q 1375 441 1709 441 
Q 2250 441 2565 725 
Q 2881 1009 2881 1497 
Q 2881 1984 2565 2268 
Q 2250 2553 1709 2553 
Q 1456 2553 1204 2497 
Q 953 2441 691 2322 
L 691 4666 
z
" transform="scale(0.015625)"/>
       </defs>
       <use xlink:href="#DejaVuSans-30"/>
       <use xlink:href="#DejaVuSans-2e" transform="translate(63.623047 0)"/>
       <use xlink:href="#DejaVuSans-35" transform="translate(95.410156 0)"/>
      </g>
     </g>
    </g>
    <g id="ytick_3">
     <g id="line2d_55">
      <path d="M 50.6 257.004639 
L 703.774183 257.004639 
" clip-path="url(#pe892d72fb0)" style="fill: none; stroke-dasharray: 1.85,0.8; stroke-dashoffset: 0; stroke: #808080; stroke-width: 0.5"/>
     </g>
     <g id="line2d_56">
      <g>
       <use xlink:href="#m306d46adfe" x="50.6" y="257.004639" style="stroke: #000000; stroke-width: 0.8"/>
      </g>
     </g>
     <g id="text_11">
      <!-- 1.0 -->
      <g transform="translate(27.696875 260.803857) scale(0.1 -0.1)">
       <use xlink:href="#DejaVuSans-31"/>
       <use xlink:href="#DejaVuSans-2e" transform="translate(63.623047 0)"/>
       <use xlink:href="#DejaVuSans-30" transform="translate(95.410156 0)"/>
      </g>
     </g>
    </g>
    <g id="ytick_4">
     <g id="line2d_57">
      <path d="M 50.6 197.24552 
L 703.774183 197.24552 
" clip-path="url(#pe892d72fb0)" style="fill: none; stroke-dasharray: 1.85,0.8; stroke-dashoffset: 0; stroke: #808080; stroke-width: 0.5"/>
     </g>
     <g id="line2d_58">
      <g>
       <use xlink:href="#m306d46adfe" x="50.6" y="197.24552" style="stroke: #000000; stroke-width: 0.8"/>
      </g>
     </g>
     <g id="text_12">
      <!-- 1.5 -->
      <g transform="translate(27.696875 201.044738) scale(0.1 -0.1)">
       <use xlink:href="#DejaVuSans-31"/>
       <use xlink:href="#DejaVuSans-2e" transform="translate(63.623047 0)"/>
       <use xlink:href="#DejaVuSans-35" transform="translate(95.410156 0)"/>
      </g>
     </g>
    </g>
    <g id="ytick_5">
     <g id="line2d_59">
      <path d="M 50.6 137.486401 
L 703.774183 137.486401 
" clip-path="url(#pe892d72fb0)" style="fill: none; stroke-dasharray: 1.85,0.8; stroke-dashoffset: 0; stroke: #808080; stroke-width: 0.5"/>
     </g>
     <g id="line2d_60">
      <g>
       <use xlink:href="#m306d46adfe" x="50.6" y="137.486401" style="stroke: #000000; stroke-width: 0.8"/>
      </g>
     </g>
     <g id="text_13">
      <!-- 2.0 -->
      <g transform="translate(27.696875 141.285619) scale(0.1 -0.1)">
       <use xlink:href="#DejaVuSans-32"/>
       <use xlink:href="#DejaVuSans-2e" transform="translate(63.623047 0)"/>
       <use xlink:href="#DejaVuSans-30" transform="translate(95.410156 0)"/>
      </g>
     </g>
    </g>
    <g id="ytick_6">
     <g id="line2d_61">
      <path d="M 50.6 77.727281 
L 703.774183 77.727281 
" clip-path="url(#pe892d72fb0)" style="fill: none; stroke-dasharray: 1.85,0.8; stroke-dashoffset: 0; stroke: #808080; stroke-width: 0.5"/>
     </g>
     <g id="line2d_62">
      <g>
       <use xlink:href="#m306d46adfe" x="50.6" y="77.727281" style="stroke: #000000; stroke-width: 0.8"/>
      </g>
     </g>
     <g id="text_14">
      <!-- 2.5 -->
      <g transform="translate(27.696875 81.5265) scale(0.1 -0.1)">
       <use xlink:href="#DejaVuSans-32"/>
       <use xlink:href="#DejaVuSans-2e" transform="translate(63.623047 0)"/>
       <use xlink:href="#DejaVuSans-35" transform="translate(95.410156 0)"/>
      </g>
     </g>
    </g>
    <g id="ytick_7">
     <g id="line2d_63">
      <path d="M 50.6 364.571053 
L 703.774183 364.571053 
" clip-path="url(#pe892d72fb0)" style="fill: none; stroke-dasharray: 0.5,0.825; stroke-dashoffset: 0; stroke: #d3d3d3; stroke-width: 0.5"/>
     </g>
     <g id="line2d_64">
      <defs>
       <path id="m6cb2cce0d6" d="M 0 0 
L -2 0 
" style="stroke: #000000; stroke-width: 0.6"/>
      </defs>
      <g>
       <use xlink:href="#m6cb2cce0d6" x="50.6" y="364.571053" style="stroke: #000000; stroke-width: 0.6"/>
      </g>
     </g>
    </g>
    <g id="ytick_8">
     <g id="line2d_65">
      <path d="M 50.6 352.619229 
L 703.774183 352.619229 
" clip-path="url(#pe892d72fb0)" style="fill: none; stroke-dasharray: 0.5,0.825; stroke-dashoffset: 0; stroke: #d3d3d3; stroke-width: 0.5"/>
     </g>
     <g id="line2d_66">
      <g>
       <use xlink:href="#m6cb2cce0d6" x="50.6" y="352.619229" style="stroke: #000000; stroke-width: 0.6"/>
      </g>
     </g>
    </g>
    <g id="ytick_9">
     <g id="line2d_67">
      <path d="M 50.6 340.667405 
L 703.774183 340.667405 
" clip-path="url(#pe892d72fb0)" style="fill: none; stroke-dasharray: 0.5,0.825; stroke-dashoffset: 0; stroke: #d3d3d3; stroke-width: 0.5"/>
     </g>
     <g id="line2d_68">
      <g>
       <use xlink:href="#m6cb2cce0d6" x="50.6" y="340.667405" style="stroke: #000000; stroke-width: 0.6"/>
      </g>
     </g>
    </g>
    <g id="ytick_10">
     <g id="line2d_69">
      <path d="M 50.6 328.715582 
L 703.774183 328.715582 
" clip-path="url(#pe892d72fb0)" style="fill: none; stroke-dasharray: 0.5,0.825; stroke-dashoffset: 0; stroke: #d3d3d3; stroke-width: 0.5"/>
     </g>
     <g id="line2d_70">
      <g>
       <use xlink:href="#m6cb2cce0d6" x="50.6" y="328.715582" style="stroke: #000000; stroke-width: 0.6"/>
      </g>
     </g>
    </g>
    <g id="ytick_11">
     <g id="line2d_71">
      <path d="M 50.6 304.811934 
L 703.774183 304.811934 
" clip-path="url(#pe892d72fb0)" style="fill: none; stroke-dasharray: 0.5,0.825; stroke-dashoffset: 0; stroke: #d3d3d3; stroke-width: 0.5"/>
     </g>
     <g id="line2d_72">
      <g>
       <use xlink:href="#m6cb2cce0d6" x="50.6" y="304.811934" style="stroke: #000000; stroke-width: 0.6"/>
      </g>
     </g>
    </g>
    <g id="ytick_12">
     <g id="line2d_73">
      <path d="M 50.6 292.86011 
L 703.774183 292.86011 
" clip-path="url(#pe892d72fb0)" style="fill: none; stroke-dasharray: 0.5,0.825; stroke-dashoffset: 0; stroke: #d3d3d3; stroke-width: 0.5"/>
     </g>
     <g id="line2d_74">
      <g>
       <use xlink:href="#m6cb2cce0d6" x="50.6" y="292.86011" style="stroke: #000000; stroke-width: 0.6"/>
      </g>
     </g>
    </g>
    <g id="ytick_13">
     <g id="line2d_75">
      <path d="M 50.6 280.908286 
L 703.774183 280.908286 
" clip-path="url(#pe892d72fb0)" style="fill: none; stroke-dasharray: 0.5,0.825; stroke-dashoffset: 0; stroke: #d3d3d3; stroke-width: 0.5"/>
     </g>
     <g id="line2d_76">
      <g>
       <use xlink:href="#m6cb2cce0d6" x="50.6" y="280.908286" style="stroke: #000000; stroke-width: 0.6"/>
      </g>
     </g>
    </g>
    <g id="ytick_14">
     <g id="line2d_77">
      <path d="M 50.6 268.956462 
L 703.774183 268.956462 
" clip-path="url(#pe892d72fb0)" style="fill: none; stroke-dasharray: 0.5,0.825; stroke-dashoffset: 0; stroke: #d3d3d3; stroke-width: 0.5"/>
     </g>
     <g id="line2d_78">
      <g>
       <use xlink:href="#m6cb2cce0d6" x="50.6" y="268.956462" style="stroke: #000000; stroke-width: 0.6"/>
      </g>
     </g>
    </g>
    <g id="ytick_15">
     <g id="line2d_79">
      <path d="M 50.6 245.052815 
L 703.774183 245.052815 
" clip-path="url(#pe892d72fb0)" style="fill: none; stroke-dasharray: 0.5,0.825; stroke-dashoffset: 0; stroke: #d3d3d3; stroke-width: 0.5"/>
     </g>
     <g id="line2d_80">
      <g>
       <use xlink:href="#m6cb2cce0d6" x="50.6" y="245.052815" style="stroke: #000000; stroke-width: 0.6"/>
      </g>
     </g>
    </g>
    <g id="ytick_16">
     <g id="line2d_81">
      <path d="M 50.6 233.100991 
L 703.774183 233.100991 
" clip-path="url(#pe892d72fb0)" style="fill: none; stroke-dasharray: 0.5,0.825; stroke-dashoffset: 0; stroke: #d3d3d3; stroke-width: 0.5"/>
     </g>
     <g id="line2d_82">
      <g>
       <use xlink:href="#m6cb2cce0d6" x="50.6" y="233.100991" style="stroke: #000000; stroke-width: 0.6"/>
      </g>
     </g>
    </g>
    <g id="ytick_17">
     <g id="line2d_83">
      <path d="M 50.6 221.149167 
L 703.774183 221.149167 
" clip-path="url(#pe892d72fb0)" style="fill: none; stroke-dasharray: 0.5,0.825; stroke-dashoffset: 0; stroke: #d3d3d3; stroke-width: 0.5"/>
     </g>
     <g id="line2d_84">
      <g>
       <use xlink:href="#m6cb2cce0d6" x="50.6" y="221.149167" style="stroke: #000000; stroke-width: 0.6"/>
      </g>
     </g>
    </g>
    <g id="ytick_18">
     <g id="line2d_85">
      <path d="M 50.6 209.197343 
L 703.774183 209.197343 
" clip-path="url(#pe892d72fb0)" style="fill: none; stroke-dasharray: 0.5,0.825; stroke-dashoffset: 0; stroke: #d3d3d3; stroke-width: 0.5"/>
     </g>
     <g id="line2d_86">
      <g>
       <use xlink:href="#m6cb2cce0d6" x="50.6" y="209.197343" style="stroke: #000000; stroke-width: 0.6"/>
      </g>
     </g>
    </g>
    <g id="ytick_19">
     <g id="line2d_87">
      <path d="M 50.6 185.293696 
L 703.774183 185.293696 
" clip-path="url(#pe892d72fb0)" style="fill: none; stroke-dasharray: 0.5,0.825; stroke-dashoffset: 0; stroke: #d3d3d3; stroke-width: 0.5"/>
     </g>
     <g id="line2d_88">
      <g>
       <use xlink:href="#m6cb2cce0d6" x="50.6" y="185.293696" style="stroke: #000000; stroke-width: 0.6"/>
      </g>
     </g>
    </g>
    <g id="ytick_20">
     <g id="line2d_89">
      <path d="M 50.6 173.341872 
L 703.774183 173.341872 
" clip-path="url(#pe892d72fb0)" style="fill: none; stroke-dasharray: 0.5,0.825; stroke-dashoffset: 0; stroke: #d3d3d3; stroke-width: 0.5"/>
     </g>
     <g id="line2d_90">
      <g>
       <use xlink:href="#m6cb2cce0d6" x="50.6" y="173.341872" style="stroke: #000000; stroke-width: 0.6"/>
      </g>
     </g>
    </g>
    <g id="ytick_21">
     <g id="line2d_91">
      <path d="M 50.6 161.390048 
L 703.774183 161.390048 
" clip-path="url(#pe892d72fb0)" style="fill: none; stroke-dasharray: 0.5,0.825; stroke-dashoffset: 0; stroke: #d3d3d3; stroke-width: 0.5"/>
     </g>
     <g id="line2d_92">
      <g>
       <use xlink:href="#m6cb2cce0d6" x="50.6" y="161.390048" style="stroke: #000000; stroke-width: 0.6"/>
      </g>
     </g>
    </g>
    <g id="ytick_22">
     <g id="line2d_93">
      <path d="M 50.6 149.438224 
L 703.774183 149.438224 
" clip-path="url(#pe892d72fb0)" style="fill: none; stroke-dasharray: 0.5,0.825; stroke-dashoffset: 0; stroke: #d3d3d3; stroke-width: 0.5"/>
     </g>
     <g id="line2d_94">
      <g>
       <use xlink:href="#m6cb2cce0d6" x="50.6" y="149.438224" style="stroke: #000000; stroke-width: 0.6"/>
      </g>
     </g>
    </g>
    <g id="ytick_23">
     <g id="line2d_95">
      <path d="M 50.6 125.534577 
L 703.774183 125.534577 
" clip-path="url(#pe892d72fb0)" style="fill: none; stroke-dasharray: 0.5,0.825; stroke-dashoffset: 0; stroke: #d3d3d3; stroke-width: 0.5"/>
     </g>
     <g id="line2d_96">
      <g>
       <use xlink:href="#m6cb2cce0d6" x="50.6" y="125.534577" style="stroke: #000000; stroke-width: 0.6"/>
      </g>
     </g>
    </g>
    <g id="ytick_24">
     <g id="line2d_97">
      <path d="M 50.6 113.582753 
L 703.774183 113.582753 
" clip-path="url(#pe892d72fb0)" style="fill: none; stroke-dasharray: 0.5,0.825; stroke-dashoffset: 0; stroke: #d3d3d3; stroke-width: 0.5"/>
     </g>
     <g id="line2d_98">
      <g>
       <use xlink:href="#m6cb2cce0d6" x="50.6" y="113.582753" style="stroke: #000000; stroke-width: 0.6"/>
      </g>
     </g>
    </g>
    <g id="ytick_25">
     <g id="line2d_99">
      <path d="M 50.6 101.630929 
L 703.774183 101.630929 
" clip-path="url(#pe892d72fb0)" style="fill: none; stroke-dasharray: 0.5,0.825; stroke-dashoffset: 0; stroke: #d3d3d3; stroke-width: 0.5"/>
     </g>
     <g id="line2d_100">
      <g>
       <use xlink:href="#m6cb2cce0d6" x="50.6" y="101.630929" style="stroke: #000000; stroke-width: 0.6"/>
      </g>
     </g>
    </g>
    <g id="ytick_26">
     <g id="line2d_101">
      <path d="M 50.6 89.679105 
L 703.774183 89.679105 
" clip-path="url(#pe892d72fb0)" style="fill: none; stroke-dasharray: 0.5,0.825; stroke-dashoffset: 0; stroke: #d3d3d3; stroke-width: 0.5"/>
     </g>
     <g id="line2d_102">
      <g>
       <use xlink:href="#m6cb2cce0d6" x="50.6" y="89.679105" style="stroke: #000000; stroke-width: 0.6"/>
      </g>
     </g>
    </g>
    <g id="ytick_27">
     <g id="line2d_103">
      <path d="M 50.6 65.775458 
L 703.774183 65.775458 
" clip-path="url(#pe892d72fb0)" style="fill: none; stroke-dasharray: 0.5,0.825; stroke-dashoffset: 0; stroke: #d3d3d3; stroke-width: 0.5"/>
     </g>
     <g id="line2d_104">
      <g>
       <use xlink:href="#m6cb2cce0d6" x="50.6" y="65.775458" style="stroke: #000000; stroke-width: 0.6"/>
      </g>
     </g>
    </g>
    <g id="ytick_28">
     <g id="line2d_105">
      <path d="M 50.6 53.823634 
L 703.774183 53.823634 
" clip-path="url(#pe892d72fb0)" style="fill: none; stroke-dasharray: 0.5,0.825; stroke-dashoffset: 0; stroke: #d3d3d3; stroke-width: 0.5"/>
     </g>
     <g id="line2d_106">
      <g>
       <use xlink:href="#m6cb2cce0d6" x="50.6" y="53.823634" style="stroke: #000000; stroke-width: 0.6"/>
      </g>
     </g>
    </g>
    <g id="ytick_29">
     <g id="line2d_107">
      <path d="M 50.6 41.87181 
L 703.774183 41.87181 
" clip-path="url(#pe892d72fb0)" style="fill: none; stroke-dasharray: 0.5,0.825; stroke-dashoffset: 0; stroke: #d3d3d3; stroke-width: 0.5"/>
     </g>
     <g id="line2d_108">
      <g>
       <use xlink:href="#m6cb2cce0d6" x="50.6" y="41.87181" style="stroke: #000000; stroke-width: 0.6"/>
      </g>
     </g>
    </g>
    <g id="text_15">
     <!-- Напряжение, В -->
     <g transform="translate(21.20125 261.57125) rotate(-90) scale(0.12 -0.12)">
      <defs>
       <path id="DejaVuSans-41d" d="M 628 4666 
L 1259 4666 
L 1259 2753 
L 3553 2753 
L 3553 4666 
L 4184 4666 
L 4184 0 
L 3553 0 
L 3553 2222 
L 1259 2222 
L 1259 0 
L 628 0 
L 628 4666 
z
" transform="scale(0.015625)"/>
       <path id="DejaVuSans-430" d="M 2194 1759 
Q 1497 1759 1228 1600 
Q 959 1441 959 1056 
Q 959 750 1161 570 
Q 1363 391 1709 391 
Q 2188 391 2477 730 
Q 2766 1069 2766 1631 
L 2766 1759 
L 2194 1759 
z
M 3341 1997 
L 3341 0 
L 2766 0 
L 2766 531 
Q 2569 213 2275 61 
Q 1981 -91 1556 -91 
Q 1019 -91 701 211 
Q 384 513 384 1019 
Q 384 1609 779 1909 
Q 1175 2209 1959 2209 
L 2766 2209 
L 2766 2266 
Q 2766 2663 2505 2880 
Q 2244 3097 1772 3097 
Q 1472 3097 1187 3025 
Q 903 2953 641 2809 
L 641 3341 
Q 956 3463 1253 3523 
Q 1550 3584 1831 3584 
Q 2591 3584 2966 3190 
Q 3341 2797 3341 1997 
z
" transform="scale(0.015625)"/>
       <path id="DejaVuSans-43f" d="M 3603 3500 
L 3603 0 
L 3025 0 
L 3025 3041 
L 1159 3041 
L 1159 0 
L 581 0 
L 581 3500 
L 3603 3500 
z
" transform="scale(0.015625)"/>
       <path id="DejaVuSans-436" d="M 2597 3500 
L 3169 3500 
L 3169 1856 
L 4697 3500 
L 5366 3500 
L 4109 2153 
L 5547 0 
L 4931 0 
L 3753 1769 
L 3169 1141 
L 3169 0 
L 2597 0 
L 2597 1141 
L 2013 1769 
L 834 0 
L 219 0 
L 1656 2153 
L 400 3500 
L 1069 3500 
L 2597 1856 
L 2597 3500 
z
" transform="scale(0.015625)"/>
       <path id="DejaVuSans-43d" d="M 581 3500 
L 1159 3500 
L 1159 2072 
L 3025 2072 
L 3025 3500 
L 3603 3500 
L 3603 0 
L 3025 0 
L 3025 1613 
L 1159 1613 
L 1159 0 
L 581 0 
L 581 3500 
z
" transform="scale(0.015625)"/>
       <path id="DejaVuSans-438" d="M 3578 3500 
L 3578 0 
L 3006 0 
L 3006 2809 
L 1319 0 
L 581 0 
L 581 3500 
L 1153 3500 
L 1153 697 
L 2838 3500 
L 3578 3500 
z
" transform="scale(0.015625)"/>
      </defs>
      <use xlink:href="#DejaVuSans-41d"/>
      <use xlink:href="#DejaVuSans-430" transform="translate(75.195312 0)"/>
      <use xlink:href="#DejaVuSans-43f" transform="translate(136.474609 0)"/>
      <use xlink:href="#DejaVuSans-440" transform="translate(201.855469 0)"/>
      <use xlink:href="#DejaVuSans-44f" transform="translate(265.332031 0)"/>
      <use xlink:href="#DejaVuSans-436" transform="translate(325.488281 0)"/>
      <use xlink:href="#DejaVuSans-435" transform="translate(415.576172 0)"/>
      <use xlink:href="#DejaVuSans-43d" transform="translate(477.099609 0)"/>
      <use xlink:href="#DejaVuSans-438" transform="translate(542.480469 0)"/>
      <use xlink:href="#DejaVuSans-435" transform="translate(607.470703 0)"/>
      <use xlink:href="#DejaVuSans-2c" transform="translate(668.994141 0)"/>
      <use xlink:href="#DejaVuSans-20" transform="translate(700.78125 0)"/>
      <use xlink:href="#DejaVuSans-412" transform="translate(732.568359 0)"/>
     </g>
    </g>
   </g>
   <g id="line2d_109">
    <path d="M 50.6 375.208176 
L 51.328176 369.949374 
L 53.512705 362.06117 
L 54.240882 356.802368 
L 55.697234 351.543565 
L 56.425411 346.284763 
L 57.153587 346.284763 
L 57.881763 341.02596 
L 58.60994 341.02596 
L 59.338116 335.767158 
L 60.066293 335.767158 
L 60.794469 327.878954 
L 70.260761 293.696738 
L 70.988938 293.696738 
L 71.717114 288.437935 
L 74.629819 277.92033 
L 75.357996 277.92033 
L 76.086172 272.661528 
L 76.814348 272.661528 
L 82.639759 251.626318 
L 83.367936 251.626318 
L 86.280641 241.108713 
L 87.008817 241.108713 
L 89.921523 230.591108 
L 90.649699 230.591108 
L 92.106052 225.332306 
L 92.834228 225.332306 
L 94.290581 220.073503 
L 95.018757 220.073503 
L 96.47511 214.814701 
L 97.203286 214.814701 
L 98.659639 209.555898 
L 100.115992 209.555898 
L 100.844168 204.297096 
L 101.572344 204.297096 
L 102.300521 201.667694 
L 103.028697 201.667694 
L 104.48505 196.408892 
L 105.213226 196.408892 
L 105.941402 193.779491 
L 106.669579 193.779491 
L 108.125931 188.520688 
L 109.582284 188.520688 
L 111.038637 183.261886 
L 112.49499 183.261886 
L 113.951342 178.003083 
L 114.679519 178.003083 
L 115.407695 175.373682 
L 116.135871 175.373682 
L 116.864048 172.744281 
L 117.592224 172.744281 
L 118.3204 170.11488 
L 119.048577 170.11488 
L 119.776753 167.485478 
L 121.961282 167.485478 
L 122.689458 162.226676 
L 124.145811 162.226676 
L 124.873987 159.597275 
L 125.602164 159.597275 
L 126.33034 156.967873 
L 127.786693 156.967873 
L 128.514869 154.338472 
L 129.243045 154.338472 
L 129.971222 151.709071 
L 130.699398 151.709071 
L 131.427575 149.07967 
L 133.612104 149.07967 
L 135.068456 143.820867 
L 136.524809 143.820867 
L 137.252985 141.191466 
L 138.709338 141.191466 
L 139.437514 138.562065 
L 140.165691 138.562065 
L 140.893867 135.932663 
L 143.078396 135.932663 
L 143.806572 133.303262 
L 144.534749 133.303262 
L 145.262925 130.673861 
L 146.719278 130.673861 
L 147.447454 128.04446 
L 149.631983 128.04446 
L 151.088336 122.785657 
L 155.457394 122.785657 
L 156.913747 117.526855 
L 159.826452 117.526855 
L 160.554628 114.897454 
L 162.739157 114.897454 
L 163.467334 112.268052 
L 164.923686 112.268052 
L 165.651863 109.638651 
L 167.108216 109.638651 
L 167.836392 107.00925 
L 170.749097 107.00925 
L 171.477274 104.379849 
L 174.389979 104.379849 
L 175.118155 101.750447 
L 178.030861 101.750447 
L 178.759037 99.121046 
L 181.671742 99.121046 
L 182.399919 96.491645 
L 183.856272 96.491645 
L 184.584448 93.862244 
L 185.312624 96.491645 
L 186.040801 93.862244 
L 188.22533 93.862244 
L 188.953506 91.232842 
L 194.05074 91.232842 
L 194.778917 88.603441 
L 198.419798 88.603441 
L 199.147975 85.97404 
L 202.788857 85.97404 
L 203.517033 83.344639 
L 206.429738 83.344639 
L 207.157915 80.715237 
L 215.167854 80.715237 
L 215.896031 78.085836 
L 221.721442 78.085836 
L 222.449618 75.456435 
L 223.177794 78.085836 
L 223.905971 75.456435 
L 227.546852 75.456435 
L 228.275029 72.827034 
L 229.003205 75.456435 
L 229.731381 72.827034 
L 236.284969 72.827034 
L 237.013145 70.197632 
L 243.566732 70.197632 
L 244.294908 67.568231 
L 250.848495 67.568231 
L 251.576672 64.93883 
L 252.304848 67.568231 
L 253.033024 67.568231 
L 253.761201 64.93883 
L 260.314788 64.93883 
L 261.042964 62.309429 
L 261.771141 64.93883 
L 262.499317 64.93883 
L 263.227493 62.309429 
L 263.95567 64.93883 
L 264.683846 64.93883 
L 265.412022 62.309429 
L 271.237433 62.309429 
L 271.96561 59.680028 
L 272.693786 62.309429 
L 273.421962 62.309429 
L 274.150139 59.680028 
L 274.878315 59.680028 
L 275.606491 62.309429 
L 277.79102 62.309429 
L 278.519197 59.680028 
L 292.354547 59.680028 
L 293.082724 57.050626 
L 293.8109 59.680028 
L 294.539076 57.050626 
L 310.558956 57.050626 
L 311.287132 54.421225 
L 312.015309 54.421225 
L 312.743485 57.050626 
L 313.471661 57.050626 
L 314.199838 54.421225 
L 314.928014 54.421225 
L 315.65619 57.050626 
L 316.384367 54.421225 
L 328.763365 54.421225 
L 329.491541 51.791824 
L 330.219717 57.050626 
L 330.947894 59.680028 
L 331.67607 59.680028 
L 332.404246 64.93883 
L 333.860599 70.197632 
L 334.588775 75.456435 
L 335.316952 75.456435 
L 336.045128 80.715237 
L 336.773304 80.715237 
L 337.501481 85.97404 
L 338.957833 91.232842 
L 339.68601 91.232842 
L 340.414186 96.491645 
L 341.142362 96.491645 
L 348.424126 122.785657 
L 349.152302 122.785657 
L 352.793184 135.932663 
L 353.52136 135.932663 
L 354.249537 141.191466 
L 354.977713 141.191466 
L 355.705889 143.820867 
L 356.434066 143.820867 
L 360.074948 156.967873 
L 360.803124 156.967873 
L 363.715829 167.485478 
L 364.444006 167.485478 
L 365.900358 172.744281 
L 366.628535 172.744281 
L 367.356711 175.373682 
L 368.084887 175.373682 
L 370.269416 183.261886 
L 370.997593 183.261886 
L 371.725769 185.891287 
L 372.453945 185.891287 
L 373.910298 191.150089 
L 374.638474 191.150089 
L 376.094827 196.408892 
L 376.823004 196.408892 
L 377.55118 199.038293 
L 378.279356 199.038293 
L 379.007533 201.667694 
L 379.735709 201.667694 
L 380.463885 204.297096 
L 381.192062 204.297096 
L 381.920238 206.926497 
L 382.648414 206.926497 
L 383.376591 209.555898 
L 384.104767 209.555898 
L 384.832943 212.185299 
L 385.56112 212.185299 
L 387.017472 217.444102 
L 388.473825 217.444102 
L 389.202001 220.073503 
L 389.930178 220.073503 
L 390.658354 222.702904 
L 391.38653 222.702904 
L 392.842883 227.961707 
L 394.299236 227.961707 
L 395.027412 230.591108 
L 395.755589 230.591108 
L 396.483765 233.220509 
L 397.211941 233.220509 
L 397.940118 235.849911 
L 398.668294 235.849911 
L 399.39647 238.479312 
L 400.852823 238.479312 
L 401.580999 241.108713 
L 402.309176 241.108713 
L 403.037352 243.738114 
L 403.765528 243.738114 
L 404.493705 246.367515 
L 405.221881 246.367515 
L 405.950057 248.996917 
L 408.134586 248.996917 
L 409.590939 254.255719 
L 411.047292 254.255719 
L 411.775468 256.88512 
L 412.503645 256.88512 
L 413.231821 259.514522 
L 415.41635 259.514522 
L 416.144526 262.143923 
L 416.872703 262.143923 
L 417.600879 264.773324 
L 419.057232 264.773324 
L 419.785408 267.402725 
L 420.513584 267.402725 
L 421.241761 270.032127 
L 422.698113 270.032127 
L 423.42629 272.661528 
L 425.610819 272.661528 
L 426.338995 275.290929 
L 427.795348 275.290929 
L 428.523524 277.92033 
L 429.979877 277.92033 
L 430.708053 280.549732 
L 432.892582 280.549732 
L 433.620759 283.179133 
L 434.348935 283.179133 
L 435.077111 285.808534 
L 437.26164 285.808534 
L 437.989817 288.437935 
L 439.446169 288.437935 
L 440.174346 291.067337 
L 440.902522 291.067337 
L 441.630698 293.696738 
L 445.999756 293.696738 
L 446.727933 296.326139 
L 448.184286 296.326139 
L 448.912462 298.95554 
L 450.368815 298.95554 
L 451.096991 301.584942 
L 454.009696 301.584942 
L 454.737873 304.214343 
L 456.922402 304.214343 
L 457.650578 306.843744 
L 459.106931 306.843744 
L 459.835107 309.473145 
L 462.747812 309.473145 
L 463.475989 312.102546 
L 466.388694 312.102546 
L 467.116871 314.731948 
L 467.845047 312.102546 
L 468.573223 314.731948 
L 470.029576 314.731948 
L 470.757752 317.361349 
L 473.670458 317.361349 
L 474.398634 319.99075 
L 477.311339 319.99075 
L 478.039516 322.620151 
L 480.952221 322.620151 
L 481.680397 325.249553 
L 486.049456 325.249553 
L 486.777632 327.878954 
L 489.690337 327.878954 
L 490.418514 330.508355 
L 493.331219 330.508355 
L 494.059395 333.137756 
L 494.787572 330.508355 
L 495.515748 333.137756 
L 497.700277 333.137756 
L 498.428453 335.767158 
L 505.710217 335.767158 
L 506.438393 338.396559 
L 511.535628 338.396559 
L 512.263804 341.02596 
L 515.904686 341.02596 
L 516.632862 343.655361 
L 523.186449 343.655361 
L 523.914626 346.284763 
L 531.196389 346.284763 
L 531.924565 348.914164 
L 537.749976 348.914164 
L 538.478153 351.543565 
L 539.206329 348.914164 
L 539.934505 351.543565 
L 547.944445 351.543565 
L 548.672621 354.172966 
L 555.226209 354.172966 
L 555.954385 356.802368 
L 567.605206 356.802368 
L 568.333383 359.431769 
L 579.984204 359.431769 
L 580.712381 362.06117 
L 581.440557 359.431769 
L 582.168733 362.06117 
L 593.819555 362.06117 
L 594.547731 364.690571 
L 609.839435 364.690571 
L 610.567611 367.319972 
L 611.295787 364.690571 
L 613.480316 364.690571 
L 614.208493 367.319972 
L 614.936669 367.319972 
L 615.664845 364.690571 
L 616.393022 367.319972 
L 630.956549 367.319972 
L 631.684725 369.949374 
L 632.412901 367.319972 
L 638.238312 367.319972 
L 638.966488 369.949374 
L 640.422841 369.949374 
L 641.151017 367.319972 
L 641.879194 369.949374 
L 661.539955 369.949374 
L 662.268132 372.578775 
L 662.996308 369.949374 
L 664.452661 369.949374 
L 665.180837 372.578775 
L 703.046007 372.578775 
L 703.774183 375.208176 
L 703.774183 375.208176 
" clip-path="url(#pe892d72fb0)" style="fill: none; stroke: #0000ff; stroke-width: 2; stroke-linecap: square"/>
    <defs>
     <path id="mff522c3cca" d="M 0 2 
C 0.530406 2 1.03916 1.789267 1.414214 1.414214 
C 1.789267 1.03916 2 0.530406 2 0 
C 2 -0.530406 1.789267 -1.03916 1.414214 -1.414214 
C 1.03916 -1.789267 0.530406 -2 0 -2 
C -0.530406 -2 -1.03916 -1.789267 -1.414214 -1.414214 
C -1.789267 -1.03916 -2 -0.530406 -2 0 
C -2 0.530406 -1.789267 1.03916 -1.414214 1.414214 
C -1.03916 1.789267 -0.530406 2 0 2 
z
" style="stroke: #000000"/>
    </defs>
    <g clip-path="url(#pe892d72fb0)">
     <use xlink:href="#mff522c3cca" x="50.6" y="375.208176" style="fill: #ff0000; stroke: #000000"/>
     <use xlink:href="#mff522c3cca" x="57.881763" y="341.02596" style="fill: #ff0000; stroke: #000000"/>
     <use xlink:href="#mff522c3cca" x="65.163527" y="312.102546" style="fill: #ff0000; stroke: #000000"/>
     <use xlink:href="#mff522c3cca" x="72.44529" y="285.808534" style="fill: #ff0000; stroke: #000000"/>
     <use xlink:href="#mff522c3cca" x="79.727054" y="262.143923" style="fill: #ff0000; stroke: #000000"/>
     <use xlink:href="#mff522c3cca" x="87.008817" y="241.108713" style="fill: #ff0000; stroke: #000000"/>
     <use xlink:href="#mff522c3cca" x="94.290581" y="220.073503" style="fill: #ff0000; stroke: #000000"/>
     <use xlink:href="#mff522c3cca" x="101.572344" y="204.297096" style="fill: #ff0000; stroke: #000000"/>
     <use xlink:href="#mff522c3cca" x="108.854108" y="188.520688" style="fill: #ff0000; stroke: #000000"/>
     <use xlink:href="#mff522c3cca" x="116.135871" y="175.373682" style="fill: #ff0000; stroke: #000000"/>
     <use xlink:href="#mff522c3cca" x="123.417635" y="162.226676" style="fill: #ff0000; stroke: #000000"/>
     <use xlink:href="#mff522c3cca" x="130.699398" y="151.709071" style="fill: #ff0000; stroke: #000000"/>
     <use xlink:href="#mff522c3cca" x="137.981162" y="141.191466" style="fill: #ff0000; stroke: #000000"/>
     <use xlink:href="#mff522c3cca" x="145.262925" y="130.673861" style="fill: #ff0000; stroke: #000000"/>
     <use xlink:href="#mff522c3cca" x="152.544689" y="122.785657" style="fill: #ff0000; stroke: #000000"/>
     <use xlink:href="#mff522c3cca" x="159.826452" y="117.526855" style="fill: #ff0000; stroke: #000000"/>
     <use xlink:href="#mff522c3cca" x="167.108216" y="109.638651" style="fill: #ff0000; stroke: #000000"/>
     <use xlink:href="#mff522c3cca" x="174.389979" y="104.379849" style="fill: #ff0000; stroke: #000000"/>
     <use xlink:href="#mff522c3cca" x="181.671742" y="99.121046" style="fill: #ff0000; stroke: #000000"/>
     <use xlink:href="#mff522c3cca" x="188.953506" y="91.232842" style="fill: #ff0000; stroke: #000000"/>
     <use xlink:href="#mff522c3cca" x="196.235269" y="88.603441" style="fill: #ff0000; stroke: #000000"/>
     <use xlink:href="#mff522c3cca" x="203.517033" y="83.344639" style="fill: #ff0000; stroke: #000000"/>
     <use xlink:href="#mff522c3cca" x="210.798796" y="80.715237" style="fill: #ff0000; stroke: #000000"/>
     <use xlink:href="#mff522c3cca" x="218.08056" y="78.085836" style="fill: #ff0000; stroke: #000000"/>
     <use xlink:href="#mff522c3cca" x="225.362323" y="75.456435" style="fill: #ff0000; stroke: #000000"/>
     <use xlink:href="#mff522c3cca" x="232.644087" y="72.827034" style="fill: #ff0000; stroke: #000000"/>
     <use xlink:href="#mff522c3cca" x="239.92585" y="70.197632" style="fill: #ff0000; stroke: #000000"/>
     <use xlink:href="#mff522c3cca" x="247.207614" y="67.568231" style="fill: #ff0000; stroke: #000000"/>
     <use xlink:href="#mff522c3cca" x="254.489377" y="64.93883" style="fill: #ff0000; stroke: #000000"/>
     <use xlink:href="#mff522c3cca" x="261.771141" y="64.93883" style="fill: #ff0000; stroke: #000000"/>
     <use xlink:href="#mff522c3cca" x="269.052904" y="62.309429" style="fill: #ff0000; stroke: #000000"/>
     <use xlink:href="#mff522c3cca" x="276.334668" y="62.309429" style="fill: #ff0000; stroke: #000000"/>
     <use xlink:href="#mff522c3cca" x="283.616431" y="59.680028" style="fill: #ff0000; stroke: #000000"/>
     <use xlink:href="#mff522c3cca" x="290.898195" y="59.680028" style="fill: #ff0000; stroke: #000000"/>
     <use xlink:href="#mff522c3cca" x="298.179958" y="57.050626" style="fill: #ff0000; stroke: #000000"/>
     <use xlink:href="#mff522c3cca" x="305.461721" y="57.050626" style="fill: #ff0000; stroke: #000000"/>
     <use xlink:href="#mff522c3cca" x="312.743485" y="57.050626" style="fill: #ff0000; stroke: #000000"/>
     <use xlink:href="#mff522c3cca" x="320.025248" y="54.421225" style="fill: #ff0000; stroke: #000000"/>
     <use xlink:href="#mff522c3cca" x="327.307012" y="54.421225" style="fill: #ff0000; stroke: #000000"/>
     <use xlink:href="#mff522c3cca" x="334.588775" y="75.456435" style="fill: #ff0000; stroke: #000000"/>
     <use xlink:href="#mff522c3cca" x="341.870539" y="99.121046" style="fill: #ff0000; stroke: #000000"/>
     <use xlink:href="#mff522c3cca" x="349.152302" y="122.785657" style="fill: #ff0000; stroke: #000000"/>
     <use xlink:href="#mff522c3cca" x="356.434066" y="143.820867" style="fill: #ff0000; stroke: #000000"/>
     <use xlink:href="#mff522c3cca" x="363.715829" y="167.485478" style="fill: #ff0000; stroke: #000000"/>
     <use xlink:href="#mff522c3cca" x="370.997593" y="183.261886" style="fill: #ff0000; stroke: #000000"/>
     <use xlink:href="#mff522c3cca" x="378.279356" y="199.038293" style="fill: #ff0000; stroke: #000000"/>
     <use xlink:href="#mff522c3cca" x="385.56112" y="212.185299" style="fill: #ff0000; stroke: #000000"/>
     <use xlink:href="#mff522c3cca" x="392.842883" y="227.961707" style="fill: #ff0000; stroke: #000000"/>
     <use xlink:href="#mff522c3cca" x="400.124647" y="238.479312" style="fill: #ff0000; stroke: #000000"/>
     <use xlink:href="#mff522c3cca" x="407.40641" y="248.996917" style="fill: #ff0000; stroke: #000000"/>
     <use xlink:href="#mff522c3cca" x="414.688174" y="259.514522" style="fill: #ff0000; stroke: #000000"/>
     <use xlink:href="#mff522c3cca" x="421.969937" y="270.032127" style="fill: #ff0000; stroke: #000000"/>
     <use xlink:href="#mff522c3cca" x="429.2517" y="277.92033" style="fill: #ff0000; stroke: #000000"/>
     <use xlink:href="#mff522c3cca" x="436.533464" y="285.808534" style="fill: #ff0000; stroke: #000000"/>
     <use xlink:href="#mff522c3cca" x="443.815227" y="293.696738" style="fill: #ff0000; stroke: #000000"/>
     <use xlink:href="#mff522c3cca" x="451.096991" y="301.584942" style="fill: #ff0000; stroke: #000000"/>
     <use xlink:href="#mff522c3cca" x="458.378754" y="306.843744" style="fill: #ff0000; stroke: #000000"/>
     <use xlink:href="#mff522c3cca" x="465.660518" y="312.102546" style="fill: #ff0000; stroke: #000000"/>
     <use xlink:href="#mff522c3cca" x="472.942281" y="317.361349" style="fill: #ff0000; stroke: #000000"/>
     <use xlink:href="#mff522c3cca" x="480.224045" y="322.620151" style="fill: #ff0000; stroke: #000000"/>
     <use xlink:href="#mff522c3cca" x="487.505808" y="327.878954" style="fill: #ff0000; stroke: #000000"/>
     <use xlink:href="#mff522c3cca" x="494.787572" y="330.508355" style="fill: #ff0000; stroke: #000000"/>
     <use xlink:href="#mff522c3cca" x="502.069335" y="335.767158" style="fill: #ff0000; stroke: #000000"/>
     <use xlink:href="#mff522c3cca" x="509.351099" y="338.396559" style="fill: #ff0000; stroke: #000000"/>
     <use xlink:href="#mff522c3cca" x="516.632862" y="343.655361" style="fill: #ff0000; stroke: #000000"/>
     <use xlink:href="#mff522c3cca" x="523.914626" y="346.284763" style="fill: #ff0000; stroke: #000000"/>
     <use xlink:href="#mff522c3cca" x="531.196389" y="346.284763" style="fill: #ff0000; stroke: #000000"/>
     <use xlink:href="#mff522c3cca" x="538.478153" y="351.543565" style="fill: #ff0000; stroke: #000000"/>
     <use xlink:href="#mff522c3cca" x="545.759916" y="351.543565" style="fill: #ff0000; stroke: #000000"/>
     <use xlink:href="#mff522c3cca" x="553.041679" y="354.172966" style="fill: #ff0000; stroke: #000000"/>
     <use xlink:href="#mff522c3cca" x="560.323443" y="356.802368" style="fill: #ff0000; stroke: #000000"/>
     <use xlink:href="#mff522c3cca" x="567.605206" y="356.802368" style="fill: #ff0000; stroke: #000000"/>
     <use xlink:href="#mff522c3cca" x="574.88697" y="359.431769" style="fill: #ff0000; stroke: #000000"/>
     <use xlink:href="#mff522c3cca" x="582.168733" y="362.06117" style="fill: #ff0000; stroke: #000000"/>
     <use xlink:href="#mff522c3cca" x="589.450497" y="362.06117" style="fill: #ff0000; stroke: #000000"/>
     <use xlink:href="#mff522c3cca" x="596.73226" y="364.690571" style="fill: #ff0000; stroke: #000000"/>
     <use xlink:href="#mff522c3cca" x="604.014024" y="364.690571" style="fill: #ff0000; stroke: #000000"/>
     <use xlink:href="#mff522c3cca" x="611.295787" y="364.690571" style="fill: #ff0000; stroke: #000000"/>
     <use xlink:href="#mff522c3cca" x="618.577551" y="367.319972" style="fill: #ff0000; stroke: #000000"/>
     <use xlink:href="#mff522c3cca" x="625.859314" y="367.319972" style="fill: #ff0000; stroke: #000000"/>
     <use xlink:href="#mff522c3cca" x="633.141078" y="367.319972" style="fill: #ff0000; stroke: #000000"/>
     <use xlink:href="#mff522c3cca" x="640.422841" y="369.949374" style="fill: #ff0000; stroke: #000000"/>
     <use xlink:href="#mff522c3cca" x="647.704605" y="369.949374" style="fill: #ff0000; stroke: #000000"/>
     <use xlink:href="#mff522c3cca" x="654.986368" y="369.949374" style="fill: #ff0000; stroke: #000000"/>
     <use xlink:href="#mff522c3cca" x="662.268132" y="372.578775" style="fill: #ff0000; stroke: #000000"/>
     <use xlink:href="#mff522c3cca" x="669.549895" y="372.578775" style="fill: #ff0000; stroke: #000000"/>
     <use xlink:href="#mff522c3cca" x="676.831659" y="372.578775" style="fill: #ff0000; stroke: #000000"/>
     <use xlink:href="#mff522c3cca" x="684.113422" y="372.578775" style="fill: #ff0000; stroke: #000000"/>
     <use xlink:href="#mff522c3cca" x="691.395185" y="372.578775" style="fill: #ff0000; stroke: #000000"/>
     <use xlink:href="#mff522c3cca" x="698.676949" y="372.578775" style="fill: #ff0000; stroke: #000000"/>
    </g>
   </g>
   <g id="patch_3">
    <path d="M 50.6 387.16 
L 50.6 39.84 
" style="fill: none; stroke: #000000; stroke-width: 0.8; stroke-linejoin: miter; stroke-linecap: square"/>
   </g>
   <g id="patch_4">
    <path d="M 703.774183 387.16 
L 703.774183 39.84 
" style="fill: none; stroke: #000000; stroke-width: 0.8; stroke-linejoin: miter; stroke-linecap: square"/>
   </g>
   <g id="patch_5">
    <path d="M 50.6 387.16 
L 703.774183 387.16 
" style="fill: none; stroke: #000000; stroke-width: 0.8; stroke-linejoin: miter; stroke-linecap: square"/>
   </g>
   <g id="patch_6">
    <path d="M 50.6 39.84 
L 703.774183 39.84 
" style="fill: none; stroke: #000000; stroke-width: 0.8; stroke-linejoin: miter; stroke-linecap: square"/>
   </g>
   <g id="text_16">
    <g id="patch_7">
     <path d="M 478.880638 221.237038 
L 602.080638 221.237038 
Q 607.080638 221.237038 607.080638 216.237038 
L 607.080638 195.3611 
Q 607.080638 190.3611 602.080638 190.3611 
L 478.880638 190.3611 
Q 473.880638 190.3611 473.880638 195.3611 
L 473.880638 216.237038 
Q 473.880638 221.237038 478.880638 221.237038 
z
" style="fill: #ffffff; stroke: #808080; stroke-linejoin: miter"/>
    </g>
    <!-- Время зарядки: 5.13 с -->
    <g style="fill: #006400" transform="translate(482.054856 202.959538) scale(0.1 -0.1)">
     <defs>
      <path id="DejaVuSans-437" d="M 2206 1888 
Q 2594 1813 2809 1584 
Q 3025 1356 3025 1019 
Q 3025 478 2622 193 
Q 2219 -91 1475 -91 
Q 1225 -91 961 -47 
Q 697 -3 416 84 
L 416 619 
Q 638 503 903 445 
Q 1169 388 1459 388 
Q 1931 388 2195 563 
Q 2459 738 2459 1019 
Q 2459 1294 2225 1461 
Q 1991 1628 1563 1628 
L 1100 1628 
L 1100 2103 
L 1584 2103 
Q 1947 2103 2158 2242 
Q 2369 2381 2369 2600 
Q 2369 2800 2151 2944 
Q 1934 3088 1563 3088 
Q 1341 3088 1089 3047 
Q 838 3006 534 2916 
L 534 3438 
Q 841 3513 1106 3550 
Q 1372 3588 1609 3588 
Q 2222 3588 2576 3342 
Q 2931 3097 2931 2656 
Q 2931 2366 2743 2164 
Q 2556 1963 2206 1888 
z
" transform="scale(0.015625)"/>
      <path id="DejaVuSans-434" d="M 1384 459 
L 3053 459 
L 3053 3041 
L 1844 3041 
L 1844 2603 
Q 1844 1316 1475 628 
L 1384 459 
z
M 550 459 
Q 834 584 959 850 
Q 1266 1509 1266 2838 
L 1266 3500 
L 3631 3500 
L 3631 459 
L 4091 459 
L 4091 -884 
L 3631 -884 
L 3631 0 
L 794 0 
L 794 -884 
L 334 -884 
L 334 459 
L 550 459 
z
" transform="scale(0.015625)"/>
      <path id="DejaVuSans-43a" d="M 581 3500 
L 1153 3500 
L 1153 1856 
L 2775 3500 
L 3481 3500 
L 2144 2147 
L 3653 0 
L 3009 0 
L 1769 1766 
L 1153 1141 
L 1153 0 
L 581 0 
L 581 3500 
z
" transform="scale(0.015625)"/>
      <path id="DejaVuSans-3a" d="M 750 794 
L 1409 794 
L 1409 0 
L 750 0 
L 750 794 
z
M 750 3309 
L 1409 3309 
L 1409 2516 
L 750 2516 
L 750 3309 
z
" transform="scale(0.015625)"/>
      <path id="DejaVuSans-33" d="M 2597 2516 
Q 3050 2419 3304 2112 
Q 3559 1806 3559 1356 
Q 3559 666 3084 287 
Q 2609 -91 1734 -91 
Q 1441 -91 1130 -33 
Q 819 25 488 141 
L 488 750 
Q 750 597 1062 519 
Q 1375 441 1716 441 
Q 2309 441 2620 675 
Q 2931 909 2931 1356 
Q 2931 1769 2642 2001 
Q 2353 2234 1838 2234 
L 1294 2234 
L 1294 2753 
L 1863 2753 
Q 2328 2753 2575 2939 
Q 2822 3125 2822 3475 
Q 2822 3834 2567 4026 
Q 2313 4219 1838 4219 
Q 1578 4219 1281 4162 
Q 984 4106 628 3988 
L 628 4550 
Q 988 4650 1302 4700 
Q 1616 4750 1894 4750 
Q 2613 4750 3031 4423 
Q 3450 4097 3450 3541 
Q 3450 3153 3228 2886 
Q 3006 2619 2597 2516 
z
" transform="scale(0.015625)"/>
     </defs>
     <use xlink:href="#DejaVuSans-412"/>
     <use xlink:href="#DejaVuSans-440" transform="translate(68.603516 0)"/>
     <use xlink:href="#DejaVuSans-435" transform="translate(132.080078 0)"/>
     <use xlink:href="#DejaVuSans-43c" transform="translate(193.603516 0)"/>
     <use xlink:href="#DejaVuSans-44f" transform="translate(269.042969 0)"/>
     <use xlink:href="#DejaVuSans-20" transform="translate(329.199219 0)"/>
     <use xlink:href="#DejaVuSans-437" transform="translate(360.986328 0)"/>
     <use xlink:href="#DejaVuSans-430" transform="translate(414.160156 0)"/>
     <use xlink:href="#DejaVuSans-440" transform="translate(475.439453 0)"/>
     <use xlink:href="#DejaVuSans-44f" transform="translate(538.916016 0)"/>
     <use xlink:href="#DejaVuSans-434" transform="translate(599.072266 0)"/>
     <use xlink:href="#DejaVuSans-43a" transform="translate(668.212891 0)"/>
     <use xlink:href="#DejaVuSans-438" transform="translate(728.613281 0)"/>
     <use xlink:href="#DejaVuSans-3a" transform="translate(793.603516 0)"/>
     <use xlink:href="#DejaVuSans-20" transform="translate(827.294922 0)"/>
     <use xlink:href="#DejaVuSans-35" transform="translate(859.082031 0)"/>
     <use xlink:href="#DejaVuSans-2e" transform="translate(922.705078 0)"/>
     <use xlink:href="#DejaVuSans-31" transform="translate(954.492188 0)"/>
     <use xlink:href="#DejaVuSans-33" transform="translate(1018.115234 0)"/>
     <use xlink:href="#DejaVuSans-20" transform="translate(1081.738281 0)"/>
     <use xlink:href="#DejaVuSans-441" transform="translate(1113.525391 0)"/>
    </g>
    <!-- Время разрядки: 6.89 с -->
    <g style="fill: #006400" transform="translate(478.880638 214.15735) scale(0.1 -0.1)">
     <defs>
      <path id="DejaVuSans-39" d="M 703 97 
L 703 672 
Q 941 559 1184 500 
Q 1428 441 1663 441 
Q 2288 441 2617 861 
Q 2947 1281 2994 2138 
Q 2813 1869 2534 1725 
Q 2256 1581 1919 1581 
Q 1219 1581 811 2004 
Q 403 2428 403 3163 
Q 403 3881 828 4315 
Q 1253 4750 1959 4750 
Q 2769 4750 3195 4129 
Q 3622 3509 3622 2328 
Q 3622 1225 3098 567 
Q 2575 -91 1691 -91 
Q 1453 -91 1209 -44 
Q 966 3 703 97 
z
M 1959 2075 
Q 2384 2075 2632 2365 
Q 2881 2656 2881 3163 
Q 2881 3666 2632 3958 
Q 2384 4250 1959 4250 
Q 1534 4250 1286 3958 
Q 1038 3666 1038 3163 
Q 1038 2656 1286 2365 
Q 1534 2075 1959 2075 
z
" transform="scale(0.015625)"/>
     </defs>
     <use xlink:href="#DejaVuSans-412"/>
     <use xlink:href="#DejaVuSans-440" transform="translate(68.603516 0)"/>
     <use xlink:href="#DejaVuSans-435" transform="translate(132.080078 0)"/>
     <use xlink:href="#DejaVuSans-43c" transform="translate(193.603516 0)"/>
     <use xlink:href="#DejaVuSans-44f" transform="translate(269.042969 0)"/>
     <use xlink:href="#DejaVuSans-20" transform="translate(329.199219 0)"/>
     <use xlink:href="#DejaVuSans-440" transform="translate(360.986328 0)"/>
     <use xlink:href="#DejaVuSans-430" transform="translate(424.462891 0)"/>
     <use xlink:href="#DejaVuSans-437" transform="translate(485.742188 0)"/>
     <use xlink:href="#DejaVuSans-440" transform="translate(538.916016 0)"/>
     <use xlink:href="#DejaVuSans-44f" transform="translate(602.392578 0)"/>
     <use xlink:href="#DejaVuSans-434" transform="translate(662.548828 0)"/>
     <use xlink:href="#DejaVuSans-43a" transform="translate(731.689453 0)"/>
     <use xlink:href="#DejaVuSans-438" transform="translate(792.089844 0)"/>
     <use xlink:href="#DejaVuSans-3a" transform="translate(857.080078 0)"/>
     <use xlink:href="#DejaVuSans-20" transform="translate(890.771484 0)"/>
     <use xlink:href="#DejaVuSans-36" transform="translate(922.558594 0)"/>
     <use xlink:href="#DejaVuSans-2e" transform="translate(986.181641 0)"/>
     <use xlink:href="#DejaVuSans-38" transform="translate(1017.96875 0)"/>
     <use xlink:href="#DejaVuSans-39" transform="translate(1081.591797 0)"/>
     <use xlink:href="#DejaVuSans-20" transform="translate(1145.214844 0)"/>
     <use xlink:href="#DejaVuSans-441" transform="translate(1177.001953 0)"/>
    </g>
   </g>
   <g id="text_17">
    <!-- График зависимости напряжения на конденсаторе от -->
    <g transform="translate(204.604592 22.22625) scale(0.12 -0.12)">
     <defs>
      <path id="DejaVuSans-413" d="M 628 0 
L 628 4666 
L 3531 4666 
L 3531 4134 
L 1259 4134 
L 1259 0 
L 628 0 
z
" transform="scale(0.015625)"/>
      <path id="DejaVuSans-444" d="M 947 1747 
Q 947 1013 1173 702 
Q 1400 391 1784 391 
Q 2091 391 2447 916 
L 2447 2578 
Q 2091 3103 1784 3103 
Q 1400 3103 1173 2792 
Q 947 2481 947 1747 
z
M 2447 -1331 
L 2447 447 
Q 2269 153 2064 31 
Q 1859 -91 1600 -91 
Q 1078 -91 714 392 
Q 350 875 350 1734 
Q 350 2594 714 3089 
Q 1078 3584 1600 3584 
Q 1859 3584 2064 3465 
Q 2269 3347 2447 3053 
L 2447 4666 
L 3025 4666 
L 3025 3053 
Q 3203 3347 3408 3465 
Q 3613 3584 3872 3584 
Q 4394 3584 4758 3089 
Q 5122 2594 5122 1734 
Q 5122 875 4758 392 
Q 4394 -91 3872 -91 
Q 3613 -91 3408 31 
Q 3203 153 3025 447 
L 3025 -1331 
L 2447 -1331 
z
M 4525 1747 
Q 4525 2481 4298 2792 
Q 4072 3103 3688 3103 
Q 3381 3103 3025 2578 
L 3025 916 
Q 3381 391 3688 391 
Q 4072 391 4298 702 
Q 4525 1013 4525 1747 
z
" transform="scale(0.015625)"/>
      <path id="DejaVuSans-432" d="M 1156 1613 
L 1156 459 
L 1975 459 
Q 2369 459 2575 607 
Q 2781 756 2781 1038 
Q 2781 1319 2575 1466 
Q 2369 1613 1975 1613 
L 1156 1613 
z
M 1156 3041 
L 1156 2072 
L 1913 2072 
Q 2238 2072 2444 2201 
Q 2650 2331 2650 2563 
Q 2650 2794 2444 2917 
Q 2238 3041 1913 3041 
L 1156 3041 
z
M 581 3500 
L 1950 3500 
Q 2566 3500 2897 3275 
Q 3228 3050 3228 2634 
Q 3228 2313 3059 2123 
Q 2891 1934 2559 1888 
Q 2956 1813 3175 1575 
Q 3394 1338 3394 981 
Q 3394 513 3033 256 
Q 2672 0 2003 0 
L 581 0 
L 581 3500 
z
" transform="scale(0.015625)"/>
      <path id="DejaVuSans-43e" d="M 1959 3097 
Q 1497 3097 1228 2736 
Q 959 2375 959 1747 
Q 959 1119 1226 758 
Q 1494 397 1959 397 
Q 2419 397 2687 759 
Q 2956 1122 2956 1747 
Q 2956 2369 2687 2733 
Q 2419 3097 1959 3097 
z
M 1959 3584 
Q 2709 3584 3137 3096 
Q 3566 2609 3566 1747 
Q 3566 888 3137 398 
Q 2709 -91 1959 -91 
Q 1206 -91 779 398 
Q 353 888 353 1747 
Q 353 2609 779 3096 
Q 1206 3584 1959 3584 
z
" transform="scale(0.015625)"/>
      <path id="DejaVuSans-442" d="M 188 3500 
L 3541 3500 
L 3541 3041 
L 2147 3041 
L 2147 0 
L 1581 0 
L 1581 3041 
L 188 3041 
L 188 3500 
z
" transform="scale(0.015625)"/>
     </defs>
     <use xlink:href="#DejaVuSans-413"/>
     <use xlink:href="#DejaVuSans-440" transform="translate(60.986328 0)"/>
     <use xlink:href="#DejaVuSans-430" transform="translate(124.462891 0)"/>
     <use xlink:href="#DejaVuSans-444" transform="translate(185.742188 0)"/>
     <use xlink:href="#DejaVuSans-438" transform="translate(271.240234 0)"/>
     <use xlink:href="#DejaVuSans-43a" transform="translate(336.230469 0)"/>
     <use xlink:href="#DejaVuSans-20" transform="translate(396.630859 0)"/>
     <use xlink:href="#DejaVuSans-437" transform="translate(428.417969 0)"/>
     <use xlink:href="#DejaVuSans-430" transform="translate(481.591797 0)"/>
     <use xlink:href="#DejaVuSans-432" transform="translate(542.871094 0)"/>
     <use xlink:href="#DejaVuSans-438" transform="translate(601.806641 0)"/>
     <use xlink:href="#DejaVuSans-441" transform="translate(666.796875 0)"/>
     <use xlink:href="#DejaVuSans-438" transform="translate(721.777344 0)"/>
     <use xlink:href="#DejaVuSans-43c" transform="translate(786.767578 0)"/>
     <use xlink:href="#DejaVuSans-43e" transform="translate(862.207031 0)"/>
     <use xlink:href="#DejaVuSans-441" transform="translate(923.388672 0)"/>
     <use xlink:href="#DejaVuSans-442" transform="translate(978.369141 0)"/>
     <use xlink:href="#DejaVuSans-438" transform="translate(1036.621094 0)"/>
     <use xlink:href="#DejaVuSans-20" transform="translate(1101.611328 0)"/>
     <use xlink:href="#DejaVuSans-43d" transform="translate(1133.398438 0)"/>
     <use xlink:href="#DejaVuSans-430" transform="translate(1198.779297 0)"/>
     <use xlink:href="#DejaVuSans-43f" transform="translate(1260.058594 0)"/>
     <use xlink:href="#DejaVuSans-440" transform="translate(1325.439453 0)"/>
     <use xlink:href="#DejaVuSans-44f" transform="translate(1388.916016 0)"/>
     <use xlink:href="#DejaVuSans-436" transform="translate(1449.072266 0)"/>
     <use xlink:href="#DejaVuSans-435" transform="translate(1539.160156 0)"/>
     <use xlink:href="#DejaVuSans-43d" transform="translate(1600.683594 0)"/>
     <use xlink:href="#DejaVuSans-438" transform="translate(1666.064453 0)"/>
     <use xlink:href="#DejaVuSans-44f" transform="translate(1731.054688 0)"/>
     <use xlink:href="#DejaVuSans-20" transform="translate(1791.210938 0)"/>
     <use xlink:href="#DejaVuSans-43d" transform="translate(1822.998047 0)"/>
     <use xlink:href="#DejaVuSans-430" transform="translate(1888.378906 0)"/>
     <use xlink:href="#DejaVuSans-20" transform="translate(1949.658203 0)"/>
     <use xlink:href="#DejaVuSans-43a" transform="translate(1981.445312 0)"/>
     <use xlink:href="#DejaVuSans-43e" transform="translate(2041.845703 0)"/>
     <use xlink:href="#DejaVuSans-43d" transform="translate(2103.027344 0)"/>
     <use xlink:href="#DejaVuSans-434" transform="translate(2168.408203 0)"/>
     <use xlink:href="#DejaVuSans-435" transform="translate(2237.548828 0)"/>
     <use xlink:href="#DejaVuSans-43d" transform="translate(2299.072266 0)"/>
     <use xlink:href="#DejaVuSans-441" transform="translate(2364.453125 0)"/>
     <use xlink:href="#DejaVuSans-430" transform="translate(2419.433594 0)"/>
     <use xlink:href="#DejaVuSans-442" transform="translate(2480.712891 0)"/>
     <use xlink:href="#DejaVuSans-43e" transform="translate(2538.964844 0)"/>
     <use xlink:href="#DejaVuSans-440" transform="translate(2600.146484 0)"/>
     <use xlink:href="#DejaVuSans-435" transform="translate(2663.623047 0)"/>
     <use xlink:href="#DejaVuSans-20" transform="translate(2725.146484 0)"/>
     <use xlink:href="#DejaVuSans-43e" transform="translate(2756.933594 0)"/>
     <use xlink:href="#DejaVuSans-442" transform="translate(2818.115234 0)"/>
    </g>
    <!-- времени в RC-цепи при зарядке и разрядке -->
    <g transform="translate(238.472717 35.663625) scale(0.12 -0.12)">
     <defs>
      <path id="DejaVuSans-52" d="M 2841 2188 
Q 3044 2119 3236 1894 
Q 3428 1669 3622 1275 
L 4263 0 
L 3584 0 
L 2988 1197 
Q 2756 1666 2539 1819 
Q 2322 1972 1947 1972 
L 1259 1972 
L 1259 0 
L 628 0 
L 628 4666 
L 2053 4666 
Q 2853 4666 3247 4331 
Q 3641 3997 3641 3322 
Q 3641 2881 3436 2590 
Q 3231 2300 2841 2188 
z
M 1259 4147 
L 1259 2491 
L 2053 2491 
Q 2509 2491 2742 2702 
Q 2975 2913 2975 3322 
Q 2975 3731 2742 3939 
Q 2509 4147 2053 4147 
L 1259 4147 
z
" transform="scale(0.015625)"/>
      <path id="DejaVuSans-43" d="M 4122 4306 
L 4122 3641 
Q 3803 3938 3442 4084 
Q 3081 4231 2675 4231 
Q 1875 4231 1450 3742 
Q 1025 3253 1025 2328 
Q 1025 1406 1450 917 
Q 1875 428 2675 428 
Q 3081 428 3442 575 
Q 3803 722 4122 1019 
L 4122 359 
Q 3791 134 3420 21 
Q 3050 -91 2638 -91 
Q 1578 -91 968 557 
Q 359 1206 359 2328 
Q 359 3453 968 4101 
Q 1578 4750 2638 4750 
Q 3056 4750 3426 4639 
Q 3797 4528 4122 4306 
z
" transform="scale(0.015625)"/>
      <path id="DejaVuSans-2d" d="M 313 2009 
L 1997 2009 
L 1997 1497 
L 313 1497 
L 313 2009 
z
" transform="scale(0.015625)"/>
      <path id="DejaVuSans-446" d="M 3603 0 
L 581 0 
L 581 3500 
L 1159 3500 
L 1159 459 
L 3025 459 
L 3025 3500 
L 3603 3500 
L 3603 459 
L 4063 459 
L 4063 -884 
L 3603 -884 
L 3603 0 
z
" transform="scale(0.015625)"/>
     </defs>
     <use xlink:href="#DejaVuSans-432"/>
     <use xlink:href="#DejaVuSans-440" transform="translate(58.935547 0)"/>
     <use xlink:href="#DejaVuSans-435" transform="translate(122.412109 0)"/>
     <use xlink:href="#DejaVuSans-43c" transform="translate(183.935547 0)"/>
     <use xlink:href="#DejaVuSans-435" transform="translate(259.375 0)"/>
     <use xlink:href="#DejaVuSans-43d" transform="translate(320.898438 0)"/>
     <use xlink:href="#DejaVuSans-438" transform="translate(386.279297 0)"/>
     <use xlink:href="#DejaVuSans-20" transform="translate(451.269531 0)"/>
     <use xlink:href="#DejaVuSans-432" transform="translate(483.056641 0)"/>
     <use xlink:href="#DejaVuSans-20" transform="translate(541.992188 0)"/>
     <use xlink:href="#DejaVuSans-52" transform="translate(573.779297 0)"/>
     <use xlink:href="#DejaVuSans-43" transform="translate(638.261719 0)"/>
     <use xlink:href="#DejaVuSans-2d" transform="translate(708.085938 0)"/>
     <use xlink:href="#DejaVuSans-446" transform="translate(744.169922 0)"/>
     <use xlink:href="#DejaVuSans-435" transform="translate(812.236328 0)"/>
     <use xlink:href="#DejaVuSans-43f" transform="translate(873.759766 0)"/>
     <use xlink:href="#DejaVuSans-438" transform="translate(939.140625 0)"/>
     <use xlink:href="#DejaVuSans-20" transform="translate(1004.130859 0)"/>
     <use xlink:href="#DejaVuSans-43f" transform="translate(1035.917969 0)"/>
     <use xlink:href="#DejaVuSans-440" transform="translate(1101.298828 0)"/>
     <use xlink:href="#DejaVuSans-438" transform="translate(1164.775391 0)"/>
     <use xlink:href="#DejaVuSans-20" transform="translate(1229.765625 0)"/>
     <use xlink:href="#DejaVuSans-437" transform="translate(1261.552734 0)"/>
     <use xlink:href="#DejaVuSans-430" transform="translate(1314.726562 0)"/>
     <use xlink:href="#DejaVuSans-440" transform="translate(1376.005859 0)"/>
     <use xlink:href="#DejaVuSans-44f" transform="translate(1439.482422 0)"/>
     <use xlink:href="#DejaVuSans-434" transform="translate(1499.638672 0)"/>
     <use xlink:href="#DejaVuSans-43a" transform="translate(1568.779297 0)"/>
     <use xlink:href="#DejaVuSans-435" transform="translate(1629.179688 0)"/>
     <use xlink:href="#DejaVuSans-20" transform="translate(1690.703125 0)"/>
     <use xlink:href="#DejaVuSans-438" transform="translate(1722.490234 0)"/>
     <use xlink:href="#DejaVuSans-20" transform="translate(1787.480469 0)"/>
     <use xlink:href="#DejaVuSans-440" transform="translate(1819.267578 0)"/>
     <use xlink:href="#DejaVuSans-430" transform="translate(1882.744141 0)"/>
     <use xlink:href="#DejaVuSans-437" transform="translate(1944.023438 0)"/>
     <use xlink:href="#DejaVuSans-440" transform="translate(1997.197266 0)"/>
     <use xlink:href="#DejaVuSans-44f" transform="translate(2060.673828 0)"/>
     <use xlink:href="#DejaVuSans-434" transform="translate(2120.830078 0)"/>
     <use xlink:href="#DejaVuSans-43a" transform="translate(2189.970703 0)"/>
     <use xlink:href="#DejaVuSans-435" transform="translate(2250.371094 0)"/>
    </g>
   </g>
   <g id="legend_1">
    <g id="patch_8">
     <path d="M 646.210121 62.518125 
L 696.774183 62.518125 
Q 698.774183 62.518125 698.774183 60.518125 
L 698.774183 46.84 
Q 698.774183 44.84 696.774183 44.84 
L 646.210121 44.84 
Q 644.210121 44.84 644.210121 46.84 
L 644.210121 60.518125 
Q 644.210121 62.518125 646.210121 62.518125 
z
" style="fill: #ffffff; opacity: 0.8; stroke: #cccccc; stroke-linejoin: miter"/>
    </g>
    <g id="line2d_110">
     <path d="M 648.210121 52.938438 
L 658.210121 52.938438 
L 668.210121 52.938438 
" style="fill: none; stroke: #0000ff; stroke-width: 2; stroke-linecap: square"/>
     <g>
      <use xlink:href="#mff522c3cca" x="658.210121" y="52.938438" style="fill: #ff0000; stroke: #000000"/>
     </g>
    </g>
    <g id="text_18">
     <!-- V(t) -->
     <g transform="translate(676.210121 56.438438) scale(0.1 -0.1)">
      <defs>
       <path id="DejaVuSans-56" d="M 1831 0 
L 50 4666 
L 709 4666 
L 2188 738 
L 3669 4666 
L 4325 4666 
L 2547 0 
L 1831 0 
z
" transform="scale(0.015625)"/>
       <path id="DejaVuSans-28" d="M 1984 4856 
Q 1566 4138 1362 3434 
Q 1159 2731 1159 2009 
Q 1159 1288 1364 580 
Q 1569 -128 1984 -844 
L 1484 -844 
Q 1016 -109 783 600 
Q 550 1309 550 2009 
Q 550 2706 781 3412 
Q 1013 4119 1484 4856 
L 1984 4856 
z
" transform="scale(0.015625)"/>
       <path id="DejaVuSans-74" d="M 1172 4494 
L 1172 3500 
L 2356 3500 
L 2356 3053 
L 1172 3053 
L 1172 1153 
Q 1172 725 1289 603 
Q 1406 481 1766 481 
L 2356 481 
L 2356 0 
L 1766 0 
Q 1100 0 847 248 
Q 594 497 594 1153 
L 594 3053 
L 172 3053 
L 172 3500 
L 594 3500 
L 594 4494 
L 1172 4494 
z
" transform="scale(0.015625)"/>
       <path id="DejaVuSans-29" d="M 513 4856 
L 1013 4856 
Q 1481 4119 1714 3412 
Q 1947 2706 1947 2009 
Q 1947 1309 1714 600 
Q 1481 -109 1013 -844 
L 513 -844 
Q 928 -128 1133 580 
Q 1338 1288 1338 2009 
Q 1338 2731 1133 3434 
Q 928 4138 513 4856 
z
" transform="scale(0.015625)"/>
      </defs>
      <use xlink:href="#DejaVuSans-56"/>
      <use xlink:href="#DejaVuSans-28" transform="translate(68.408203 0)"/>
      <use xlink:href="#DejaVuSans-74" transform="translate(107.421875 0)"/>
      <use xlink:href="#DejaVuSans-29" transform="translate(146.630859 0)"/>
     </g>
    </g>
   </g>
  </g>
 </g>
 <defs>
  <clipPath id="pe892d72fb0">
   <rect x="50.6" y="39.84" width="653.174183" height="347.32"/>
  </clipPath>
 </defs>
</svg>
