<?xml version="1.0" encoding="utf-8" standalone="no"?>
<!DOCTYPE svg PUBLIC "-//W3C//DTD SVG 1.1//EN"
  "http://www.w3.org/Graphics/SVG/1.1/DTD/svg11.dtd">
<svg xmlns:xlink="http://www.w3.org/1999/xlink" width="720pt" height="432pt" viewBox="0 0 720 432" xmlns="http://www.w3.org/2000/svg" version="1.1">
 <metadata>
  <rdf:RDF xmlns:dc="http://purl.org/dc/elements/1.1/" xmlns:cc="http://creativecommons.org/ns#" xmlns:rdf="http://www.w3.org/1999/02/22-rdf-syntax-ns#">
   <cc:Work>
    <dc:type rdf:resource="http://purl.org/dc/dcmitype/StillImage"/>
    <dc:date>2025-05-14T04:02:46.049784</dc:date>
    <dc:format>image/svg+xml</dc:format>
    <dc:creator>
     <cc:Agent>
      <dc:title>Matplotlib v3.10.1, https://matplotlib.org/</dc:title>
     </cc:Agent>
    </dc:creator>
   </cc:Work>
  </rdf:RDF>
 </metadata>
 <defs>
  <style type="text/css">*{stroke-linejoin: round; stroke-linecap: butt}</style>
 </defs>
 <g id="figure_1">
  <g id="patch_1">
   <path d="M 0 432 
L 720 432 
L 720 0 
L 0 0 
z
" style="fill: #ffffff"/>
  </g>
  <g id="axes_1">
   <g id="patch_2">
    <path d="M 50.6 387.16 
L 706.088413 387.16 
L 706.088413 39.84 
L 50.6 39.84 
z
" style="fill: #ffffff"/>
   </g>
   <g id="matplotlib.axis_1">
    <g id="xtick_1">
     <g id="line2d_1">
      <path d="M 50.6 387.16 
L 50.6 39.84 
" clip-path="url(#p9a3072e52d)" style="fill: none; stroke-dasharray: 1.85,0.8; stroke-dashoffset: 0; stroke: #808080; stroke-width: 0.5"/>
     </g>
     <g id="line2d_2">
      <defs>
       <path id="mf6f20c0280" d="M 0 0 
L 0 3.5 
" style="stroke: #000000; stroke-width: 0.8"/>
      </defs>
      <g>
       <use xlink:href="#mf6f20c0280" x="50.6" y="387.16" style="stroke: #000000; stroke-width: 0.8"/>
      </g>
     </g>
     <g id="text_1">
      <!-- 0 -->
      <g transform="translate(47.41875 401.758438) scale(0.1 -0.1)">
       <defs>
        <path id="DejaVuSans-30" d="M 2034 4250 
Q 1547 4250 1301 3770 
Q 1056 3291 1056 2328 
Q 1056 1369 1301 889 
Q 1547 409 2034 409 
Q 2525 409 2770 889 
Q 3016 1369 3016 2328 
Q 3016 3291 2770 3770 
Q 2525 4250 2034 4250 
z
M 2034 4750 
Q 2819 4750 3233 4129 
Q 3647 3509 3647 2328 
Q 3647 1150 3233 529 
Q 2819 -91 2034 -91 
Q 1250 -91 836 529 
Q 422 1150 422 2328 
Q 422 3509 836 4129 
Q 1250 4750 2034 4750 
z
" transform="scale(0.015625)"/>
       </defs>
       <use xlink:href="#DejaVuSans-30"/>
      </g>
     </g>
    </g>
    <g id="xtick_2">
     <g id="line2d_3">
      <path d="M 181.688658 387.16 
L 181.688658 39.84 
" clip-path="url(#p9a3072e52d)" style="fill: none; stroke-dasharray: 1.85,0.8; stroke-dashoffset: 0; stroke: #808080; stroke-width: 0.5"/>
     </g>
     <g id="line2d_4">
      <g>
       <use xlink:href="#mf6f20c0280" x="181.688658" y="387.16" style="stroke: #000000; stroke-width: 0.8"/>
      </g>
     </g>
     <g id="text_2">
      <!-- 1 -->
      <g transform="translate(178.507408 401.758438) scale(0.1 -0.1)">
       <defs>
        <path id="DejaVuSans-31" d="M 794 531 
L 1825 531 
L 1825 4091 
L 703 3866 
L 703 4441 
L 1819 4666 
L 2450 4666 
L 2450 531 
L 3481 531 
L 3481 0 
L 794 0 
L 794 531 
z
" transform="scale(0.015625)"/>
       </defs>
       <use xlink:href="#DejaVuSans-31"/>
      </g>
     </g>
    </g>
    <g id="xtick_3">
     <g id="line2d_5">
      <path d="M 312.777316 387.16 
L 312.777316 39.84 
" clip-path="url(#p9a3072e52d)" style="fill: none; stroke-dasharray: 1.85,0.8; stroke-dashoffset: 0; stroke: #808080; stroke-width: 0.5"/>
     </g>
     <g id="line2d_6">
      <g>
       <use xlink:href="#mf6f20c0280" x="312.777316" y="387.16" style="stroke: #000000; stroke-width: 0.8"/>
      </g>
     </g>
     <g id="text_3">
      <!-- 2 -->
      <g transform="translate(309.596066 401.758438) scale(0.1 -0.1)">
       <defs>
        <path id="DejaVuSans-32" d="M 1228 531 
L 3431 531 
L 3431 0 
L 469 0 
L 469 531 
Q 828 903 1448 1529 
Q 2069 2156 2228 2338 
Q 2531 2678 2651 2914 
Q 2772 3150 2772 3378 
Q 2772 3750 2511 3984 
Q 2250 4219 1831 4219 
Q 1534 4219 1204 4116 
Q 875 4013 500 3803 
L 500 4441 
Q 881 4594 1212 4672 
Q 1544 4750 1819 4750 
Q 2544 4750 2975 4387 
Q 3406 4025 3406 3419 
Q 3406 3131 3298 2873 
Q 3191 2616 2906 2266 
Q 2828 2175 2409 1742 
Q 1991 1309 1228 531 
z
" transform="scale(0.015625)"/>
       </defs>
       <use xlink:href="#DejaVuSans-32"/>
      </g>
     </g>
    </g>
    <g id="xtick_4">
     <g id="line2d_7">
      <path d="M 443.865973 387.16 
L 443.865973 39.84 
" clip-path="url(#p9a3072e52d)" style="fill: none; stroke-dasharray: 1.85,0.8; stroke-dashoffset: 0; stroke: #808080; stroke-width: 0.5"/>
     </g>
     <g id="line2d_8">
      <g>
       <use xlink:href="#mf6f20c0280" x="443.865973" y="387.16" style="stroke: #000000; stroke-width: 0.8"/>
      </g>
     </g>
     <g id="text_4">
      <!-- 3 -->
      <g transform="translate(440.684723 401.758438) scale(0.1 -0.1)">
       <defs>
        <path id="DejaVuSans-33" d="M 2597 2516 
Q 3050 2419 3304 2112 
Q 3559 1806 3559 1356 
Q 3559 666 3084 287 
Q 2609 -91 1734 -91 
Q 1441 -91 1130 -33 
Q 819 25 488 141 
L 488 750 
Q 750 597 1062 519 
Q 1375 441 1716 441 
Q 2309 441 2620 675 
Q 2931 909 2931 1356 
Q 2931 1769 2642 2001 
Q 2353 2234 1838 2234 
L 1294 2234 
L 1294 2753 
L 1863 2753 
Q 2328 2753 2575 2939 
Q 2822 3125 2822 3475 
Q 2822 3834 2567 4026 
Q 2313 4219 1838 4219 
Q 1578 4219 1281 4162 
Q 984 4106 628 3988 
L 628 4550 
Q 988 4650 1302 4700 
Q 1616 4750 1894 4750 
Q 2613 4750 3031 4423 
Q 3450 4097 3450 3541 
Q 3450 3153 3228 2886 
Q 3006 2619 2597 2516 
z
" transform="scale(0.015625)"/>
       </defs>
       <use xlink:href="#DejaVuSans-33"/>
      </g>
     </g>
    </g>
    <g id="xtick_5">
     <g id="line2d_9">
      <path d="M 574.954631 387.16 
L 574.954631 39.84 
" clip-path="url(#p9a3072e52d)" style="fill: none; stroke-dasharray: 1.85,0.8; stroke-dashoffset: 0; stroke: #808080; stroke-width: 0.5"/>
     </g>
     <g id="line2d_10">
      <g>
       <use xlink:href="#mf6f20c0280" x="574.954631" y="387.16" style="stroke: #000000; stroke-width: 0.8"/>
      </g>
     </g>
     <g id="text_5">
      <!-- 4 -->
      <g transform="translate(571.773381 401.758438) scale(0.1 -0.1)">
       <defs>
        <path id="DejaVuSans-34" d="M 2419 4116 
L 825 1625 
L 2419 1625 
L 2419 4116 
z
M 2253 4666 
L 3047 4666 
L 3047 1625 
L 3713 1625 
L 3713 1100 
L 3047 1100 
L 3047 0 
L 2419 0 
L 2419 1100 
L 313 1100 
L 313 1709 
L 2253 4666 
z
" transform="scale(0.015625)"/>
       </defs>
       <use xlink:href="#DejaVuSans-34"/>
      </g>
     </g>
    </g>
    <g id="xtick_6">
     <g id="line2d_11">
      <path d="M 706.043289 387.16 
L 706.043289 39.84 
" clip-path="url(#p9a3072e52d)" style="fill: none; stroke-dasharray: 1.85,0.8; stroke-dashoffset: 0; stroke: #808080; stroke-width: 0.5"/>
     </g>
     <g id="line2d_12">
      <g>
       <use xlink:href="#mf6f20c0280" x="706.043289" y="387.16" style="stroke: #000000; stroke-width: 0.8"/>
      </g>
     </g>
     <g id="text_6">
      <!-- 5 -->
      <g transform="translate(702.862039 401.758438) scale(0.1 -0.1)">
       <defs>
        <path id="DejaVuSans-35" d="M 691 4666 
L 3169 4666 
L 3169 4134 
L 1269 4134 
L 1269 2991 
Q 1406 3038 1543 3061 
Q 1681 3084 1819 3084 
Q 2600 3084 3056 2656 
Q 3513 2228 3513 1497 
Q 3513 744 3044 326 
Q 2575 -91 1722 -91 
Q 1428 -91 1123 -41 
Q 819 9 494 109 
L 494 744 
Q 775 591 1075 516 
Q 1375 441 1709 441 
Q 2250 441 2565 725 
Q 2881 1009 2881 1497 
Q 2881 1984 2565 2268 
Q 2250 2553 1709 2553 
Q 1456 2553 1204 2497 
Q 953 2441 691 2322 
L 691 4666 
z
" transform="scale(0.015625)"/>
       </defs>
       <use xlink:href="#DejaVuSans-35"/>
      </g>
     </g>
    </g>
    <g id="xtick_7">
     <g id="line2d_13">
      <path d="M 76.817732 387.16 
L 76.817732 39.84 
" clip-path="url(#p9a3072e52d)" style="fill: none; stroke-dasharray: 0.5,0.825; stroke-dashoffset: 0; stroke: #d3d3d3; stroke-width: 0.5"/>
     </g>
     <g id="line2d_14">
      <defs>
       <path id="m3a19941ae4" d="M 0 0 
L 0 2 
" style="stroke: #000000; stroke-width: 0.6"/>
      </defs>
      <g>
       <use xlink:href="#m3a19941ae4" x="76.817732" y="387.16" style="stroke: #000000; stroke-width: 0.6"/>
      </g>
     </g>
    </g>
    <g id="xtick_8">
     <g id="line2d_15">
      <path d="M 103.035463 387.16 
L 103.035463 39.84 
" clip-path="url(#p9a3072e52d)" style="fill: none; stroke-dasharray: 0.5,0.825; stroke-dashoffset: 0; stroke: #d3d3d3; stroke-width: 0.5"/>
     </g>
     <g id="line2d_16">
      <g>
       <use xlink:href="#m3a19941ae4" x="103.035463" y="387.16" style="stroke: #000000; stroke-width: 0.6"/>
      </g>
     </g>
    </g>
    <g id="xtick_9">
     <g id="line2d_17">
      <path d="M 129.253195 387.16 
L 129.253195 39.84 
" clip-path="url(#p9a3072e52d)" style="fill: none; stroke-dasharray: 0.5,0.825; stroke-dashoffset: 0; stroke: #d3d3d3; stroke-width: 0.5"/>
     </g>
     <g id="line2d_18">
      <g>
       <use xlink:href="#m3a19941ae4" x="129.253195" y="387.16" style="stroke: #000000; stroke-width: 0.6"/>
      </g>
     </g>
    </g>
    <g id="xtick_10">
     <g id="line2d_19">
      <path d="M 155.470926 387.16 
L 155.470926 39.84 
" clip-path="url(#p9a3072e52d)" style="fill: none; stroke-dasharray: 0.5,0.825; stroke-dashoffset: 0; stroke: #d3d3d3; stroke-width: 0.5"/>
     </g>
     <g id="line2d_20">
      <g>
       <use xlink:href="#m3a19941ae4" x="155.470926" y="387.16" style="stroke: #000000; stroke-width: 0.6"/>
      </g>
     </g>
    </g>
    <g id="xtick_11">
     <g id="line2d_21">
      <path d="M 207.906389 387.16 
L 207.906389 39.84 
" clip-path="url(#p9a3072e52d)" style="fill: none; stroke-dasharray: 0.5,0.825; stroke-dashoffset: 0; stroke: #d3d3d3; stroke-width: 0.5"/>
     </g>
     <g id="line2d_22">
      <g>
       <use xlink:href="#m3a19941ae4" x="207.906389" y="387.16" style="stroke: #000000; stroke-width: 0.6"/>
      </g>
     </g>
    </g>
    <g id="xtick_12">
     <g id="line2d_23">
      <path d="M 234.124121 387.16 
L 234.124121 39.84 
" clip-path="url(#p9a3072e52d)" style="fill: none; stroke-dasharray: 0.5,0.825; stroke-dashoffset: 0; stroke: #d3d3d3; stroke-width: 0.5"/>
     </g>
     <g id="line2d_24">
      <g>
       <use xlink:href="#m3a19941ae4" x="234.124121" y="387.16" style="stroke: #000000; stroke-width: 0.6"/>
      </g>
     </g>
    </g>
    <g id="xtick_13">
     <g id="line2d_25">
      <path d="M 260.341852 387.16 
L 260.341852 39.84 
" clip-path="url(#p9a3072e52d)" style="fill: none; stroke-dasharray: 0.5,0.825; stroke-dashoffset: 0; stroke: #d3d3d3; stroke-width: 0.5"/>
     </g>
     <g id="line2d_26">
      <g>
       <use xlink:href="#m3a19941ae4" x="260.341852" y="387.16" style="stroke: #000000; stroke-width: 0.6"/>
      </g>
     </g>
    </g>
    <g id="xtick_14">
     <g id="line2d_27">
      <path d="M 286.559584 387.16 
L 286.559584 39.84 
" clip-path="url(#p9a3072e52d)" style="fill: none; stroke-dasharray: 0.5,0.825; stroke-dashoffset: 0; stroke: #d3d3d3; stroke-width: 0.5"/>
     </g>
     <g id="line2d_28">
      <g>
       <use xlink:href="#m3a19941ae4" x="286.559584" y="387.16" style="stroke: #000000; stroke-width: 0.6"/>
      </g>
     </g>
    </g>
    <g id="xtick_15">
     <g id="line2d_29">
      <path d="M 338.995047 387.16 
L 338.995047 39.84 
" clip-path="url(#p9a3072e52d)" style="fill: none; stroke-dasharray: 0.5,0.825; stroke-dashoffset: 0; stroke: #d3d3d3; stroke-width: 0.5"/>
     </g>
     <g id="line2d_30">
      <g>
       <use xlink:href="#m3a19941ae4" x="338.995047" y="387.16" style="stroke: #000000; stroke-width: 0.6"/>
      </g>
     </g>
    </g>
    <g id="xtick_16">
     <g id="line2d_31">
      <path d="M 365.212779 387.16 
L 365.212779 39.84 
" clip-path="url(#p9a3072e52d)" style="fill: none; stroke-dasharray: 0.5,0.825; stroke-dashoffset: 0; stroke: #d3d3d3; stroke-width: 0.5"/>
     </g>
     <g id="line2d_32">
      <g>
       <use xlink:href="#m3a19941ae4" x="365.212779" y="387.16" style="stroke: #000000; stroke-width: 0.6"/>
      </g>
     </g>
    </g>
    <g id="xtick_17">
     <g id="line2d_33">
      <path d="M 391.43051 387.16 
L 391.43051 39.84 
" clip-path="url(#p9a3072e52d)" style="fill: none; stroke-dasharray: 0.5,0.825; stroke-dashoffset: 0; stroke: #d3d3d3; stroke-width: 0.5"/>
     </g>
     <g id="line2d_34">
      <g>
       <use xlink:href="#m3a19941ae4" x="391.43051" y="387.16" style="stroke: #000000; stroke-width: 0.6"/>
      </g>
     </g>
    </g>
    <g id="xtick_18">
     <g id="line2d_35">
      <path d="M 417.648242 387.16 
L 417.648242 39.84 
" clip-path="url(#p9a3072e52d)" style="fill: none; stroke-dasharray: 0.5,0.825; stroke-dashoffset: 0; stroke: #d3d3d3; stroke-width: 0.5"/>
     </g>
     <g id="line2d_36">
      <g>
       <use xlink:href="#m3a19941ae4" x="417.648242" y="387.16" style="stroke: #000000; stroke-width: 0.6"/>
      </g>
     </g>
    </g>
    <g id="xtick_19">
     <g id="line2d_37">
      <path d="M 470.083705 387.16 
L 470.083705 39.84 
" clip-path="url(#p9a3072e52d)" style="fill: none; stroke-dasharray: 0.5,0.825; stroke-dashoffset: 0; stroke: #d3d3d3; stroke-width: 0.5"/>
     </g>
     <g id="line2d_38">
      <g>
       <use xlink:href="#m3a19941ae4" x="470.083705" y="387.16" style="stroke: #000000; stroke-width: 0.6"/>
      </g>
     </g>
    </g>
    <g id="xtick_20">
     <g id="line2d_39">
      <path d="M 496.301436 387.16 
L 496.301436 39.84 
" clip-path="url(#p9a3072e52d)" style="fill: none; stroke-dasharray: 0.5,0.825; stroke-dashoffset: 0; stroke: #d3d3d3; stroke-width: 0.5"/>
     </g>
     <g id="line2d_40">
      <g>
       <use xlink:href="#m3a19941ae4" x="496.301436" y="387.16" style="stroke: #000000; stroke-width: 0.6"/>
      </g>
     </g>
    </g>
    <g id="xtick_21">
     <g id="line2d_41">
      <path d="M 522.519168 387.16 
L 522.519168 39.84 
" clip-path="url(#p9a3072e52d)" style="fill: none; stroke-dasharray: 0.5,0.825; stroke-dashoffset: 0; stroke: #d3d3d3; stroke-width: 0.5"/>
     </g>
     <g id="line2d_42">
      <g>
       <use xlink:href="#m3a19941ae4" x="522.519168" y="387.16" style="stroke: #000000; stroke-width: 0.6"/>
      </g>
     </g>
    </g>
    <g id="xtick_22">
     <g id="line2d_43">
      <path d="M 548.7369 387.16 
L 548.7369 39.84 
" clip-path="url(#p9a3072e52d)" style="fill: none; stroke-dasharray: 0.5,0.825; stroke-dashoffset: 0; stroke: #d3d3d3; stroke-width: 0.5"/>
     </g>
     <g id="line2d_44">
      <g>
       <use xlink:href="#m3a19941ae4" x="548.7369" y="387.16" style="stroke: #000000; stroke-width: 0.6"/>
      </g>
     </g>
    </g>
    <g id="xtick_23">
     <g id="line2d_45">
      <path d="M 601.172363 387.16 
L 601.172363 39.84 
" clip-path="url(#p9a3072e52d)" style="fill: none; stroke-dasharray: 0.5,0.825; stroke-dashoffset: 0; stroke: #d3d3d3; stroke-width: 0.5"/>
     </g>
     <g id="line2d_46">
      <g>
       <use xlink:href="#m3a19941ae4" x="601.172363" y="387.16" style="stroke: #000000; stroke-width: 0.6"/>
      </g>
     </g>
    </g>
    <g id="xtick_24">
     <g id="line2d_47">
      <path d="M 627.390094 387.16 
L 627.390094 39.84 
" clip-path="url(#p9a3072e52d)" style="fill: none; stroke-dasharray: 0.5,0.825; stroke-dashoffset: 0; stroke: #d3d3d3; stroke-width: 0.5"/>
     </g>
     <g id="line2d_48">
      <g>
       <use xlink:href="#m3a19941ae4" x="627.390094" y="387.16" style="stroke: #000000; stroke-width: 0.6"/>
      </g>
     </g>
    </g>
    <g id="xtick_25">
     <g id="line2d_49">
      <path d="M 653.607826 387.16 
L 653.607826 39.84 
" clip-path="url(#p9a3072e52d)" style="fill: none; stroke-dasharray: 0.5,0.825; stroke-dashoffset: 0; stroke: #d3d3d3; stroke-width: 0.5"/>
     </g>
     <g id="line2d_50">
      <g>
       <use xlink:href="#m3a19941ae4" x="653.607826" y="387.16" style="stroke: #000000; stroke-width: 0.6"/>
      </g>
     </g>
    </g>
    <g id="xtick_26">
     <g id="line2d_51">
      <path d="M 679.825557 387.16 
L 679.825557 39.84 
" clip-path="url(#p9a3072e52d)" style="fill: none; stroke-dasharray: 0.5,0.825; stroke-dashoffset: 0; stroke: #d3d3d3; stroke-width: 0.5"/>
     </g>
     <g id="line2d_52">
      <g>
       <use xlink:href="#m3a19941ae4" x="679.825557" y="387.16" style="stroke: #000000; stroke-width: 0.6"/>
      </g>
     </g>
    </g>
    <g id="text_7">
     <!-- Время, с -->
     <g transform="translate(351.478269 416.95625) scale(0.12 -0.12)">
      <defs>
       <path id="DejaVuSans-412" d="M 1259 2228 
L 1259 519 
L 2272 519 
Q 2781 519 3026 730 
Q 3272 941 3272 1375 
Q 3272 1813 3026 2020 
Q 2781 2228 2272 2228 
L 1259 2228 
z
M 1259 4147 
L 1259 2741 
L 2194 2741 
Q 2656 2741 2882 2914 
Q 3109 3088 3109 3444 
Q 3109 3797 2882 3972 
Q 2656 4147 2194 4147 
L 1259 4147 
z
M 628 4666 
L 2241 4666 
Q 2963 4666 3353 4366 
Q 3744 4066 3744 3513 
Q 3744 3084 3544 2831 
Q 3344 2578 2956 2516 
Q 3422 2416 3680 2098 
Q 3938 1781 3938 1306 
Q 3938 681 3513 340 
Q 3088 0 2303 0 
L 628 0 
L 628 4666 
z
" transform="scale(0.015625)"/>
       <path id="DejaVuSans-440" d="M 1159 525 
L 1159 -1331 
L 581 -1331 
L 581 3500 
L 1159 3500 
L 1159 2969 
Q 1341 3281 1617 3432 
Q 1894 3584 2278 3584 
Q 2916 3584 3314 3078 
Q 3713 2572 3713 1747 
Q 3713 922 3314 415 
Q 2916 -91 2278 -91 
Q 1894 -91 1617 61 
Q 1341 213 1159 525 
z
M 3116 1747 
Q 3116 2381 2855 2742 
Q 2594 3103 2138 3103 
Q 1681 3103 1420 2742 
Q 1159 2381 1159 1747 
Q 1159 1113 1420 752 
Q 1681 391 2138 391 
Q 2594 391 2855 752 
Q 3116 1113 3116 1747 
z
" transform="scale(0.015625)"/>
       <path id="DejaVuSans-435" d="M 3597 1894 
L 3597 1613 
L 953 1613 
Q 991 1019 1311 708 
Q 1631 397 2203 397 
Q 2534 397 2845 478 
Q 3156 559 3463 722 
L 3463 178 
Q 3153 47 2828 -22 
Q 2503 -91 2169 -91 
Q 1331 -91 842 396 
Q 353 884 353 1716 
Q 353 2575 817 3079 
Q 1281 3584 2069 3584 
Q 2775 3584 3186 3129 
Q 3597 2675 3597 1894 
z
M 3022 2063 
Q 3016 2534 2758 2815 
Q 2500 3097 2075 3097 
Q 1594 3097 1305 2825 
Q 1016 2553 972 2059 
L 3022 2063 
z
" transform="scale(0.015625)"/>
       <path id="DejaVuSans-43c" d="M 581 3500 
L 1422 3500 
L 2416 1156 
L 3413 3500 
L 4247 3500 
L 4247 0 
L 3669 0 
L 3669 2950 
L 2703 672 
L 2128 672 
L 1159 2950 
L 1159 0 
L 581 0 
L 581 3500 
z
" transform="scale(0.015625)"/>
       <path id="DejaVuSans-44f" d="M 1181 2491 
Q 1181 2231 1381 2084 
Q 1581 1938 1953 1938 
L 2728 1938 
L 2728 3041 
L 1953 3041 
Q 1581 3041 1381 2897 
Q 1181 2753 1181 2491 
z
M 363 0 
L 1431 1534 
Q 1069 1616 828 1830 
Q 588 2044 588 2491 
Q 588 2997 923 3248 
Q 1259 3500 1938 3500 
L 3306 3500 
L 3306 0 
L 2728 0 
L 2728 1478 
L 2013 1478 
L 981 0 
L 363 0 
z
" transform="scale(0.015625)"/>
       <path id="DejaVuSans-2c" d="M 750 794 
L 1409 794 
L 1409 256 
L 897 -744 
L 494 -744 
L 750 256 
L 750 794 
z
" transform="scale(0.015625)"/>
       <path id="DejaVuSans-20" transform="scale(0.015625)"/>
       <path id="DejaVuSans-441" d="M 3122 3366 
L 3122 2828 
Q 2878 2963 2633 3030 
Q 2388 3097 2138 3097 
Q 1578 3097 1268 2742 
Q 959 2388 959 1747 
Q 959 1106 1268 751 
Q 1578 397 2138 397 
Q 2388 397 2633 464 
Q 2878 531 3122 666 
L 3122 134 
Q 2881 22 2623 -34 
Q 2366 -91 2075 -91 
Q 1284 -91 818 406 
Q 353 903 353 1747 
Q 353 2603 823 3093 
Q 1294 3584 2113 3584 
Q 2378 3584 2631 3529 
Q 2884 3475 3122 3366 
z
" transform="scale(0.015625)"/>
      </defs>
      <use xlink:href="#DejaVuSans-412"/>
      <use xlink:href="#DejaVuSans-440" transform="translate(68.603516 0)"/>
      <use xlink:href="#DejaVuSans-435" transform="translate(132.080078 0)"/>
      <use xlink:href="#DejaVuSans-43c" transform="translate(193.603516 0)"/>
      <use xlink:href="#DejaVuSans-44f" transform="translate(269.042969 0)"/>
      <use xlink:href="#DejaVuSans-2c" transform="translate(329.199219 0)"/>
      <use xlink:href="#DejaVuSans-20" transform="translate(360.986328 0)"/>
      <use xlink:href="#DejaVuSans-441" transform="translate(392.773438 0)"/>
     </g>
    </g>
   </g>
   <g id="matplotlib.axis_2">
    <g id="ytick_1">
     <g id="line2d_53">
      <path d="M 50.6 347.822652 
L 706.088413 347.822652 
" clip-path="url(#p9a3072e52d)" style="fill: none; stroke-dasharray: 1.85,0.8; stroke-dashoffset: 0; stroke: #808080; stroke-width: 0.5"/>
     </g>
     <g id="line2d_54">
      <defs>
       <path id="m95d8f06a8a" d="M 0 0 
L -3.5 0 
" style="stroke: #000000; stroke-width: 0.8"/>
      </defs>
      <g>
       <use xlink:href="#m95d8f06a8a" x="50.6" y="347.822652" style="stroke: #000000; stroke-width: 0.8"/>
      </g>
     </g>
     <g id="text_8">
      <!-- 0.5 -->
      <g transform="translate(27.696875 351.621871) scale(0.1 -0.1)">
       <defs>
        <path id="DejaVuSans-2e" d="M 684 794 
L 1344 794 
L 1344 0 
L 684 0 
L 684 794 
z
" transform="scale(0.015625)"/>
       </defs>
       <use xlink:href="#DejaVuSans-30"/>
       <use xlink:href="#DejaVuSans-2e" transform="translate(63.623047 0)"/>
       <use xlink:href="#DejaVuSans-35" transform="translate(95.410156 0)"/>
      </g>
     </g>
    </g>
    <g id="ytick_2">
     <g id="line2d_55">
      <path d="M 50.6 279.861786 
L 706.088413 279.861786 
" clip-path="url(#p9a3072e52d)" style="fill: none; stroke-dasharray: 1.85,0.8; stroke-dashoffset: 0; stroke: #808080; stroke-width: 0.5"/>
     </g>
     <g id="line2d_56">
      <g>
       <use xlink:href="#m95d8f06a8a" x="50.6" y="279.861786" style="stroke: #000000; stroke-width: 0.8"/>
      </g>
     </g>
     <g id="text_9">
      <!-- 1.0 -->
      <g transform="translate(27.696875 283.661005) scale(0.1 -0.1)">
       <use xlink:href="#DejaVuSans-31"/>
       <use xlink:href="#DejaVuSans-2e" transform="translate(63.623047 0)"/>
       <use xlink:href="#DejaVuSans-30" transform="translate(95.410156 0)"/>
      </g>
     </g>
    </g>
    <g id="ytick_3">
     <g id="line2d_57">
      <path d="M 50.6 211.900921 
L 706.088413 211.900921 
" clip-path="url(#p9a3072e52d)" style="fill: none; stroke-dasharray: 1.85,0.8; stroke-dashoffset: 0; stroke: #808080; stroke-width: 0.5"/>
     </g>
     <g id="line2d_58">
      <g>
       <use xlink:href="#m95d8f06a8a" x="50.6" y="211.900921" style="stroke: #000000; stroke-width: 0.8"/>
      </g>
     </g>
     <g id="text_10">
      <!-- 1.5 -->
      <g transform="translate(27.696875 215.70014) scale(0.1 -0.1)">
       <use xlink:href="#DejaVuSans-31"/>
       <use xlink:href="#DejaVuSans-2e" transform="translate(63.623047 0)"/>
       <use xlink:href="#DejaVuSans-35" transform="translate(95.410156 0)"/>
      </g>
     </g>
    </g>
    <g id="ytick_4">
     <g id="line2d_59">
      <path d="M 50.6 143.940055 
L 706.088413 143.940055 
" clip-path="url(#p9a3072e52d)" style="fill: none; stroke-dasharray: 1.85,0.8; stroke-dashoffset: 0; stroke: #808080; stroke-width: 0.5"/>
     </g>
     <g id="line2d_60">
      <g>
       <use xlink:href="#m95d8f06a8a" x="50.6" y="143.940055" style="stroke: #000000; stroke-width: 0.8"/>
      </g>
     </g>
     <g id="text_11">
      <!-- 2.0 -->
      <g transform="translate(27.696875 147.739274) scale(0.1 -0.1)">
       <use xlink:href="#DejaVuSans-32"/>
       <use xlink:href="#DejaVuSans-2e" transform="translate(63.623047 0)"/>
       <use xlink:href="#DejaVuSans-30" transform="translate(95.410156 0)"/>
      </g>
     </g>
    </g>
    <g id="ytick_5">
     <g id="line2d_61">
      <path d="M 50.6 75.97919 
L 706.088413 75.97919 
" clip-path="url(#p9a3072e52d)" style="fill: none; stroke-dasharray: 1.85,0.8; stroke-dashoffset: 0; stroke: #808080; stroke-width: 0.5"/>
     </g>
     <g id="line2d_62">
      <g>
       <use xlink:href="#m95d8f06a8a" x="50.6" y="75.97919" style="stroke: #000000; stroke-width: 0.8"/>
      </g>
     </g>
     <g id="text_12">
      <!-- 2.5 -->
      <g transform="translate(27.696875 79.778408) scale(0.1 -0.1)">
       <use xlink:href="#DejaVuSans-32"/>
       <use xlink:href="#DejaVuSans-2e" transform="translate(63.623047 0)"/>
       <use xlink:href="#DejaVuSans-35" transform="translate(95.410156 0)"/>
      </g>
     </g>
    </g>
    <g id="ytick_6">
     <g id="line2d_63">
      <path d="M 50.6 375.006998 
L 706.088413 375.006998 
" clip-path="url(#p9a3072e52d)" style="fill: none; stroke-dasharray: 0.5,0.825; stroke-dashoffset: 0; stroke: #d3d3d3; stroke-width: 0.5"/>
     </g>
     <g id="line2d_64">
      <defs>
       <path id="m540e277e40" d="M 0 0 
L -2 0 
" style="stroke: #000000; stroke-width: 0.6"/>
      </defs>
      <g>
       <use xlink:href="#m540e277e40" x="50.6" y="375.006998" style="stroke: #000000; stroke-width: 0.6"/>
      </g>
     </g>
    </g>
    <g id="ytick_7">
     <g id="line2d_65">
      <path d="M 50.6 361.414825 
L 706.088413 361.414825 
" clip-path="url(#p9a3072e52d)" style="fill: none; stroke-dasharray: 0.5,0.825; stroke-dashoffset: 0; stroke: #d3d3d3; stroke-width: 0.5"/>
     </g>
     <g id="line2d_66">
      <g>
       <use xlink:href="#m540e277e40" x="50.6" y="361.414825" style="stroke: #000000; stroke-width: 0.6"/>
      </g>
     </g>
    </g>
    <g id="ytick_8">
     <g id="line2d_67">
      <path d="M 50.6 334.230479 
L 706.088413 334.230479 
" clip-path="url(#p9a3072e52d)" style="fill: none; stroke-dasharray: 0.5,0.825; stroke-dashoffset: 0; stroke: #d3d3d3; stroke-width: 0.5"/>
     </g>
     <g id="line2d_68">
      <g>
       <use xlink:href="#m540e277e40" x="50.6" y="334.230479" style="stroke: #000000; stroke-width: 0.6"/>
      </g>
     </g>
    </g>
    <g id="ytick_9">
     <g id="line2d_69">
      <path d="M 50.6 320.638306 
L 706.088413 320.638306 
" clip-path="url(#p9a3072e52d)" style="fill: none; stroke-dasharray: 0.5,0.825; stroke-dashoffset: 0; stroke: #d3d3d3; stroke-width: 0.5"/>
     </g>
     <g id="line2d_70">
      <g>
       <use xlink:href="#m540e277e40" x="50.6" y="320.638306" style="stroke: #000000; stroke-width: 0.6"/>
      </g>
     </g>
    </g>
    <g id="ytick_10">
     <g id="line2d_71">
      <path d="M 50.6 307.046133 
L 706.088413 307.046133 
" clip-path="url(#p9a3072e52d)" style="fill: none; stroke-dasharray: 0.5,0.825; stroke-dashoffset: 0; stroke: #d3d3d3; stroke-width: 0.5"/>
     </g>
     <g id="line2d_72">
      <g>
       <use xlink:href="#m540e277e40" x="50.6" y="307.046133" style="stroke: #000000; stroke-width: 0.6"/>
      </g>
     </g>
    </g>
    <g id="ytick_11">
     <g id="line2d_73">
      <path d="M 50.6 293.453959 
L 706.088413 293.453959 
" clip-path="url(#p9a3072e52d)" style="fill: none; stroke-dasharray: 0.5,0.825; stroke-dashoffset: 0; stroke: #d3d3d3; stroke-width: 0.5"/>
     </g>
     <g id="line2d_74">
      <g>
       <use xlink:href="#m540e277e40" x="50.6" y="293.453959" style="stroke: #000000; stroke-width: 0.6"/>
      </g>
     </g>
    </g>
    <g id="ytick_12">
     <g id="line2d_75">
      <path d="M 50.6 266.269613 
L 706.088413 266.269613 
" clip-path="url(#p9a3072e52d)" style="fill: none; stroke-dasharray: 0.5,0.825; stroke-dashoffset: 0; stroke: #d3d3d3; stroke-width: 0.5"/>
     </g>
     <g id="line2d_76">
      <g>
       <use xlink:href="#m540e277e40" x="50.6" y="266.269613" style="stroke: #000000; stroke-width: 0.6"/>
      </g>
     </g>
    </g>
    <g id="ytick_13">
     <g id="line2d_77">
      <path d="M 50.6 252.67744 
L 706.088413 252.67744 
" clip-path="url(#p9a3072e52d)" style="fill: none; stroke-dasharray: 0.5,0.825; stroke-dashoffset: 0; stroke: #d3d3d3; stroke-width: 0.5"/>
     </g>
     <g id="line2d_78">
      <g>
       <use xlink:href="#m540e277e40" x="50.6" y="252.67744" style="stroke: #000000; stroke-width: 0.6"/>
      </g>
     </g>
    </g>
    <g id="ytick_14">
     <g id="line2d_79">
      <path d="M 50.6 239.085267 
L 706.088413 239.085267 
" clip-path="url(#p9a3072e52d)" style="fill: none; stroke-dasharray: 0.5,0.825; stroke-dashoffset: 0; stroke: #d3d3d3; stroke-width: 0.5"/>
     </g>
     <g id="line2d_80">
      <g>
       <use xlink:href="#m540e277e40" x="50.6" y="239.085267" style="stroke: #000000; stroke-width: 0.6"/>
      </g>
     </g>
    </g>
    <g id="ytick_15">
     <g id="line2d_81">
      <path d="M 50.6 225.493094 
L 706.088413 225.493094 
" clip-path="url(#p9a3072e52d)" style="fill: none; stroke-dasharray: 0.5,0.825; stroke-dashoffset: 0; stroke: #d3d3d3; stroke-width: 0.5"/>
     </g>
     <g id="line2d_82">
      <g>
       <use xlink:href="#m540e277e40" x="50.6" y="225.493094" style="stroke: #000000; stroke-width: 0.6"/>
      </g>
     </g>
    </g>
    <g id="ytick_16">
     <g id="line2d_83">
      <path d="M 50.6 198.308748 
L 706.088413 198.308748 
" clip-path="url(#p9a3072e52d)" style="fill: none; stroke-dasharray: 0.5,0.825; stroke-dashoffset: 0; stroke: #d3d3d3; stroke-width: 0.5"/>
     </g>
     <g id="line2d_84">
      <g>
       <use xlink:href="#m540e277e40" x="50.6" y="198.308748" style="stroke: #000000; stroke-width: 0.6"/>
      </g>
     </g>
    </g>
    <g id="ytick_17">
     <g id="line2d_85">
      <path d="M 50.6 184.716575 
L 706.088413 184.716575 
" clip-path="url(#p9a3072e52d)" style="fill: none; stroke-dasharray: 0.5,0.825; stroke-dashoffset: 0; stroke: #d3d3d3; stroke-width: 0.5"/>
     </g>
     <g id="line2d_86">
      <g>
       <use xlink:href="#m540e277e40" x="50.6" y="184.716575" style="stroke: #000000; stroke-width: 0.6"/>
      </g>
     </g>
    </g>
    <g id="ytick_18">
     <g id="line2d_87">
      <path d="M 50.6 171.124401 
L 706.088413 171.124401 
" clip-path="url(#p9a3072e52d)" style="fill: none; stroke-dasharray: 0.5,0.825; stroke-dashoffset: 0; stroke: #d3d3d3; stroke-width: 0.5"/>
     </g>
     <g id="line2d_88">
      <g>
       <use xlink:href="#m540e277e40" x="50.6" y="171.124401" style="stroke: #000000; stroke-width: 0.6"/>
      </g>
     </g>
    </g>
    <g id="ytick_19">
     <g id="line2d_89">
      <path d="M 50.6 157.532228 
L 706.088413 157.532228 
" clip-path="url(#p9a3072e52d)" style="fill: none; stroke-dasharray: 0.5,0.825; stroke-dashoffset: 0; stroke: #d3d3d3; stroke-width: 0.5"/>
     </g>
     <g id="line2d_90">
      <g>
       <use xlink:href="#m540e277e40" x="50.6" y="157.532228" style="stroke: #000000; stroke-width: 0.6"/>
      </g>
     </g>
    </g>
    <g id="ytick_20">
     <g id="line2d_91">
      <path d="M 50.6 130.347882 
L 706.088413 130.347882 
" clip-path="url(#p9a3072e52d)" style="fill: none; stroke-dasharray: 0.5,0.825; stroke-dashoffset: 0; stroke: #d3d3d3; stroke-width: 0.5"/>
     </g>
     <g id="line2d_92">
      <g>
       <use xlink:href="#m540e277e40" x="50.6" y="130.347882" style="stroke: #000000; stroke-width: 0.6"/>
      </g>
     </g>
    </g>
    <g id="ytick_21">
     <g id="line2d_93">
      <path d="M 50.6 116.755709 
L 706.088413 116.755709 
" clip-path="url(#p9a3072e52d)" style="fill: none; stroke-dasharray: 0.5,0.825; stroke-dashoffset: 0; stroke: #d3d3d3; stroke-width: 0.5"/>
     </g>
     <g id="line2d_94">
      <g>
       <use xlink:href="#m540e277e40" x="50.6" y="116.755709" style="stroke: #000000; stroke-width: 0.6"/>
      </g>
     </g>
    </g>
    <g id="ytick_22">
     <g id="line2d_95">
      <path d="M 50.6 103.163536 
L 706.088413 103.163536 
" clip-path="url(#p9a3072e52d)" style="fill: none; stroke-dasharray: 0.5,0.825; stroke-dashoffset: 0; stroke: #d3d3d3; stroke-width: 0.5"/>
     </g>
     <g id="line2d_96">
      <g>
       <use xlink:href="#m540e277e40" x="50.6" y="103.163536" style="stroke: #000000; stroke-width: 0.6"/>
      </g>
     </g>
    </g>
    <g id="ytick_23">
     <g id="line2d_97">
      <path d="M 50.6 89.571363 
L 706.088413 89.571363 
" clip-path="url(#p9a3072e52d)" style="fill: none; stroke-dasharray: 0.5,0.825; stroke-dashoffset: 0; stroke: #d3d3d3; stroke-width: 0.5"/>
     </g>
     <g id="line2d_98">
      <g>
       <use xlink:href="#m540e277e40" x="50.6" y="89.571363" style="stroke: #000000; stroke-width: 0.6"/>
      </g>
     </g>
    </g>
    <g id="ytick_24">
     <g id="line2d_99">
      <path d="M 50.6 62.387017 
L 706.088413 62.387017 
" clip-path="url(#p9a3072e52d)" style="fill: none; stroke-dasharray: 0.5,0.825; stroke-dashoffset: 0; stroke: #d3d3d3; stroke-width: 0.5"/>
     </g>
     <g id="line2d_100">
      <g>
       <use xlink:href="#m540e277e40" x="50.6" y="62.387017" style="stroke: #000000; stroke-width: 0.6"/>
      </g>
     </g>
    </g>
    <g id="ytick_25">
     <g id="line2d_101">
      <path d="M 50.6 48.794843 
L 706.088413 48.794843 
" clip-path="url(#p9a3072e52d)" style="fill: none; stroke-dasharray: 0.5,0.825; stroke-dashoffset: 0; stroke: #d3d3d3; stroke-width: 0.5"/>
     </g>
     <g id="line2d_102">
      <g>
       <use xlink:href="#m540e277e40" x="50.6" y="48.794843" style="stroke: #000000; stroke-width: 0.6"/>
      </g>
     </g>
    </g>
    <g id="text_13">
     <!-- Напряжение, В -->
     <g transform="translate(21.20125 261.57125) rotate(-90) scale(0.12 -0.12)">
      <defs>
       <path id="DejaVuSans-41d" d="M 628 4666 
L 1259 4666 
L 1259 2753 
L 3553 2753 
L 3553 4666 
L 4184 4666 
L 4184 0 
L 3553 0 
L 3553 2222 
L 1259 2222 
L 1259 0 
L 628 0 
L 628 4666 
z
" transform="scale(0.015625)"/>
       <path id="DejaVuSans-430" d="M 2194 1759 
Q 1497 1759 1228 1600 
Q 959 1441 959 1056 
Q 959 750 1161 570 
Q 1363 391 1709 391 
Q 2188 391 2477 730 
Q 2766 1069 2766 1631 
L 2766 1759 
L 2194 1759 
z
M 3341 1997 
L 3341 0 
L 2766 0 
L 2766 531 
Q 2569 213 2275 61 
Q 1981 -91 1556 -91 
Q 1019 -91 701 211 
Q 384 513 384 1019 
Q 384 1609 779 1909 
Q 1175 2209 1959 2209 
L 2766 2209 
L 2766 2266 
Q 2766 2663 2505 2880 
Q 2244 3097 1772 3097 
Q 1472 3097 1187 3025 
Q 903 2953 641 2809 
L 641 3341 
Q 956 3463 1253 3523 
Q 1550 3584 1831 3584 
Q 2591 3584 2966 3190 
Q 3341 2797 3341 1997 
z
" transform="scale(0.015625)"/>
       <path id="DejaVuSans-43f" d="M 3603 3500 
L 3603 0 
L 3025 0 
L 3025 3041 
L 1159 3041 
L 1159 0 
L 581 0 
L 581 3500 
L 3603 3500 
z
" transform="scale(0.015625)"/>
       <path id="DejaVuSans-436" d="M 2597 3500 
L 3169 3500 
L 3169 1856 
L 4697 3500 
L 5366 3500 
L 4109 2153 
L 5547 0 
L 4931 0 
L 3753 1769 
L 3169 1141 
L 3169 0 
L 2597 0 
L 2597 1141 
L 2013 1769 
L 834 0 
L 219 0 
L 1656 2153 
L 400 3500 
L 1069 3500 
L 2597 1856 
L 2597 3500 
z
" transform="scale(0.015625)"/>
       <path id="DejaVuSans-43d" d="M 581 3500 
L 1159 3500 
L 1159 2072 
L 3025 2072 
L 3025 3500 
L 3603 3500 
L 3603 0 
L 3025 0 
L 3025 1613 
L 1159 1613 
L 1159 0 
L 581 0 
L 581 3500 
z
" transform="scale(0.015625)"/>
       <path id="DejaVuSans-438" d="M 3578 3500 
L 3578 0 
L 3006 0 
L 3006 2809 
L 1319 0 
L 581 0 
L 581 3500 
L 1153 3500 
L 1153 697 
L 2838 3500 
L 3578 3500 
z
" transform="scale(0.015625)"/>
      </defs>
      <use xlink:href="#DejaVuSans-41d"/>
      <use xlink:href="#DejaVuSans-430" transform="translate(75.195312 0)"/>
      <use xlink:href="#DejaVuSans-43f" transform="translate(136.474609 0)"/>
      <use xlink:href="#DejaVuSans-440" transform="translate(201.855469 0)"/>
      <use xlink:href="#DejaVuSans-44f" transform="translate(265.332031 0)"/>
      <use xlink:href="#DejaVuSans-436" transform="translate(325.488281 0)"/>
      <use xlink:href="#DejaVuSans-435" transform="translate(415.576172 0)"/>
      <use xlink:href="#DejaVuSans-43d" transform="translate(477.099609 0)"/>
      <use xlink:href="#DejaVuSans-438" transform="translate(542.480469 0)"/>
      <use xlink:href="#DejaVuSans-435" transform="translate(607.470703 0)"/>
      <use xlink:href="#DejaVuSans-2c" transform="translate(668.994141 0)"/>
      <use xlink:href="#DejaVuSans-20" transform="translate(700.78125 0)"/>
      <use xlink:href="#DejaVuSans-412" transform="translate(732.568359 0)"/>
     </g>
    </g>
   </g>
   <g id="line2d_103">
    <path d="M 50.6 373.567827 
L 52.334096 366.531878 
L 54.068193 370.049853 
L 55.802289 363.013904 
L 57.536385 359.49593 
L 61.004578 345.424033 
L 81.813734 303.208343 
L 83.54783 306.726317 
L 85.281927 296.172394 
L 92.218312 282.100497 
L 93.952408 285.618471 
L 95.686505 278.582523 
L 111.293372 246.920755 
L 113.027468 250.438729 
L 114.761564 243.402781 
L 119.963853 232.848858 
L 121.69795 236.366832 
L 123.432046 229.330884 
L 128.634335 218.776961 
L 132.102528 218.776961 
L 133.836624 215.258987 
L 135.57072 213.5 
L 139.038913 206.464052 
L 140.773009 204.705064 
L 142.507106 204.705064 
L 144.241202 202.946077 
L 145.975298 199.428103 
L 147.709394 199.428103 
L 149.443491 197.669116 
L 151.177587 197.669116 
L 152.911683 194.151142 
L 154.64578 195.910129 
L 156.379876 192.392155 
L 158.113972 190.633168 
L 159.848069 192.392155 
L 163.316261 185.356206 
L 165.050358 185.356206 
L 166.784454 183.597219 
L 168.51855 178.320258 
L 173.720839 178.320258 
L 177.189032 171.284309 
L 178.923128 169.525322 
L 180.657225 169.525322 
L 182.391321 166.007348 
L 184.125417 166.007348 
L 185.859514 164.248361 
L 189.327706 164.248361 
L 192.795899 157.212413 
L 196.264092 157.212413 
L 197.998188 155.453425 
L 199.732284 151.935451 
L 203.200477 148.417477 
L 206.66867 148.417477 
L 208.402766 146.65849 
L 210.136862 143.140516 
L 211.870959 141.381529 
L 213.605055 141.381529 
L 215.339151 137.863554 
L 218.807344 137.863554 
L 220.54144 136.104567 
L 225.743729 136.104567 
L 229.211922 129.068619 
L 232.680115 129.068619 
L 234.414211 127.309632 
L 236.148307 123.791657 
L 237.882404 122.03267 
L 241.350596 122.03267 
L 244.818789 118.514696 
L 246.552885 118.514696 
L 248.286982 114.996722 
L 250.021078 113.237735 
L 253.489271 113.237735 
L 255.223367 109.719761 
L 256.957463 109.719761 
L 258.69156 107.960773 
L 260.425656 107.960773 
L 262.159752 106.201786 
L 265.627945 106.201786 
L 267.362041 104.442799 
L 269.096138 104.442799 
L 270.830234 100.924825 
L 274.298427 100.924825 
L 279.500716 95.647864 
L 281.234812 95.647864 
L 284.703005 92.12989 
L 289.905294 92.12989 
L 291.63939 90.370902 
L 295.107583 90.370902 
L 296.841679 86.852928 
L 298.575775 86.852928 
L 300.309872 85.093941 
L 307.246257 85.093941 
L 310.71445 78.057993 
L 312.448546 81.575967 
L 314.182642 78.057993 
L 317.650835 78.057993 
L 319.384931 76.299006 
L 321.119028 76.299006 
L 322.853124 72.781031 
L 328.055413 72.781031 
L 329.789509 71.022044 
L 331.523605 71.022044 
L 333.257702 67.50407 
L 334.991798 65.745083 
L 336.725894 67.50407 
L 338.459991 65.745083 
L 347.130472 65.745083 
L 348.864569 63.986096 
L 350.598665 63.986096 
L 352.332761 62.227109 
L 357.53505 62.227109 
L 359.269147 58.709134 
L 367.939628 58.709134 
L 369.673725 56.950147 
L 385.280592 56.950147 
L 387.014688 55.19116 
L 388.748784 55.19116 
L 390.482881 53.432173 
L 392.216977 56.950147 
L 393.951073 56.950147 
L 395.68517 58.709134 
L 399.153362 58.709134 
L 400.887459 62.227109 
L 402.621555 62.227109 
L 404.355651 63.986096 
L 406.089748 63.986096 
L 409.55794 67.50407 
L 411.292037 67.50407 
L 413.026133 69.263057 
L 416.494326 69.263057 
L 419.962518 72.781031 
L 423.430711 72.781031 
L 428.633 78.057993 
L 430.367096 78.057993 
L 432.101193 79.81698 
L 433.835289 79.81698 
L 435.569385 81.575967 
L 437.303482 81.575967 
L 440.771674 85.093941 
L 442.505771 85.093941 
L 452.910349 95.647864 
L 454.644445 99.165838 
L 456.378541 100.924825 
L 458.112638 104.442799 
L 461.58083 107.960773 
L 463.314927 111.478748 
L 468.517216 116.755709 
L 470.251312 120.273683 
L 478.921794 129.068619 
L 480.65589 132.586593 
L 487.592275 139.622541 
L 489.326372 139.622541 
L 491.060468 143.140516 
L 494.528661 146.65849 
L 496.262757 150.176464 
L 497.996853 150.176464 
L 499.73095 153.694438 
L 501.465046 153.694438 
L 504.933239 157.212413 
L 506.667335 157.212413 
L 515.337816 166.007348 
L 517.071913 166.007348 
L 518.806009 169.525322 
L 529.210587 180.079245 
L 534.412876 180.079245 
L 536.146972 183.597219 
L 541.349261 188.87418 
L 543.083358 192.392155 
L 544.817454 192.392155 
L 546.55155 195.910129 
L 553.487936 202.946077 
L 555.222032 206.464052 
L 556.956128 213.5 
L 560.424321 220.535948 
L 565.62661 225.81291 
L 567.360706 229.330884 
L 570.828899 232.848858 
L 572.562995 238.12582 
L 574.297092 238.12582 
L 576.031188 241.643794 
L 577.765284 241.643794 
L 579.499381 245.161768 
L 582.967573 248.679742 
L 586.435766 248.679742 
L 589.903959 255.715691 
L 593.372151 259.233665 
L 595.106248 259.233665 
L 596.840344 262.751639 
L 617.6495 283.859484 
L 619.383596 282.100497 
L 621.117693 285.618471 
L 622.851789 282.100497 
L 626.319982 289.136446 
L 628.054078 285.618471 
L 631.522271 292.65442 
L 633.256367 289.136446 
L 636.72456 296.172394 
L 638.458656 292.65442 
L 641.926849 299.690368 
L 643.660945 296.172394 
L 647.129138 303.208343 
L 648.863234 299.690368 
L 652.331427 306.726317 
L 654.065523 303.208343 
L 657.533716 310.244291 
L 659.267812 306.726317 
L 662.736005 313.762265 
L 664.470101 310.244291 
L 667.938294 317.280239 
L 669.67239 313.762265 
L 673.140583 320.798214 
L 674.874679 317.280239 
L 678.342872 324.316188 
L 680.076968 320.798214 
L 683.545161 327.834162 
L 685.279257 324.316188 
L 688.74745 331.352136 
L 690.481546 327.834162 
L 693.949739 334.87011 
L 695.683835 331.352136 
L 699.152027 338.388085 
L 700.886124 334.87011 
L 704.354316 341.906059 
L 706.088413 338.388085 
L 706.088413 338.388085 
" clip-path="url(#p9a3072e52d)" style="fill: none; stroke: #0000ff; stroke-width: 2; stroke-linecap: square"/>
    <defs>
     <path id="m572e2aaaa9" d="M 0 2 
C 0.530406 2 1.03916 1.789267 1.414214 1.414214 
C 1.789267 1.03916 2 0.530406 2 0 
C 2 -0.530406 1.789267 -1.03916 1.414214 -1.414214 
C 1.03916 -1.789267 0.530406 -2 0 -2 
C -0.530406 -2 -1.03916 -1.789267 -1.414214 -1.414214 
C -1.789267 -1.03916 -2 -0.530406 -2 0 
C -2 0.530406 -1.789267 1.03916 -1.414214 1.414214 
C -1.03916 1.789267 -0.530406 2 0 2 
z
" style="stroke: #000000"/>
    </defs>
    <g clip-path="url(#p9a3072e52d)">
     <use xlink:href="#m572e2aaaa9" x="50.6" y="373.567827" style="fill: #ff0000; stroke: #000000"/>
     <use xlink:href="#m572e2aaaa9" x="67.940963" y="331.352136" style="fill: #ff0000; stroke: #000000"/>
     <use xlink:href="#m572e2aaaa9" x="85.281927" y="296.172394" style="fill: #ff0000; stroke: #000000"/>
     <use xlink:href="#m572e2aaaa9" x="102.62289" y="264.510626" style="fill: #ff0000; stroke: #000000"/>
     <use xlink:href="#m572e2aaaa9" x="119.963853" y="232.848858" style="fill: #ff0000; stroke: #000000"/>
     <use xlink:href="#m572e2aaaa9" x="137.304817" y="209.982026" style="fill: #ff0000; stroke: #000000"/>
     <use xlink:href="#m572e2aaaa9" x="154.64578" y="195.910129" style="fill: #ff0000; stroke: #000000"/>
     <use xlink:href="#m572e2aaaa9" x="171.986743" y="178.320258" style="fill: #ff0000; stroke: #000000"/>
     <use xlink:href="#m572e2aaaa9" x="189.327706" y="164.248361" style="fill: #ff0000; stroke: #000000"/>
     <use xlink:href="#m572e2aaaa9" x="206.66867" y="148.417477" style="fill: #ff0000; stroke: #000000"/>
     <use xlink:href="#m572e2aaaa9" x="224.009633" y="136.104567" style="fill: #ff0000; stroke: #000000"/>
     <use xlink:href="#m572e2aaaa9" x="241.350596" y="122.03267" style="fill: #ff0000; stroke: #000000"/>
     <use xlink:href="#m572e2aaaa9" x="258.69156" y="107.960773" style="fill: #ff0000; stroke: #000000"/>
     <use xlink:href="#m572e2aaaa9" x="276.032523" y="99.165838" style="fill: #ff0000; stroke: #000000"/>
     <use xlink:href="#m572e2aaaa9" x="293.373486" y="90.370902" style="fill: #ff0000; stroke: #000000"/>
     <use xlink:href="#m572e2aaaa9" x="310.71445" y="78.057993" style="fill: #ff0000; stroke: #000000"/>
     <use xlink:href="#m572e2aaaa9" x="328.055413" y="72.781031" style="fill: #ff0000; stroke: #000000"/>
     <use xlink:href="#m572e2aaaa9" x="345.396376" y="65.745083" style="fill: #ff0000; stroke: #000000"/>
     <use xlink:href="#m572e2aaaa9" x="362.737339" y="58.709134" style="fill: #ff0000; stroke: #000000"/>
     <use xlink:href="#m572e2aaaa9" x="380.078303" y="56.950147" style="fill: #ff0000; stroke: #000000"/>
     <use xlink:href="#m572e2aaaa9" x="397.419266" y="58.709134" style="fill: #ff0000; stroke: #000000"/>
     <use xlink:href="#m572e2aaaa9" x="414.760229" y="69.263057" style="fill: #ff0000; stroke: #000000"/>
     <use xlink:href="#m572e2aaaa9" x="432.101193" y="79.81698" style="fill: #ff0000; stroke: #000000"/>
     <use xlink:href="#m572e2aaaa9" x="449.442156" y="92.12989" style="fill: #ff0000; stroke: #000000"/>
     <use xlink:href="#m572e2aaaa9" x="466.783119" y="114.996722" style="fill: #ff0000; stroke: #000000"/>
     <use xlink:href="#m572e2aaaa9" x="484.124083" y="136.104567" style="fill: #ff0000; stroke: #000000"/>
     <use xlink:href="#m572e2aaaa9" x="501.465046" y="153.694438" style="fill: #ff0000; stroke: #000000"/>
     <use xlink:href="#m572e2aaaa9" x="518.806009" y="169.525322" style="fill: #ff0000; stroke: #000000"/>
     <use xlink:href="#m572e2aaaa9" x="536.146972" y="183.597219" style="fill: #ff0000; stroke: #000000"/>
     <use xlink:href="#m572e2aaaa9" x="553.487936" y="202.946077" style="fill: #ff0000; stroke: #000000"/>
     <use xlink:href="#m572e2aaaa9" x="570.828899" y="232.848858" style="fill: #ff0000; stroke: #000000"/>
     <use xlink:href="#m572e2aaaa9" x="588.169862" y="252.197716" style="fill: #ff0000; stroke: #000000"/>
     <use xlink:href="#m572e2aaaa9" x="605.510826" y="271.546575" style="fill: #ff0000; stroke: #000000"/>
     <use xlink:href="#m572e2aaaa9" x="622.851789" y="282.100497" style="fill: #ff0000; stroke: #000000"/>
     <use xlink:href="#m572e2aaaa9" x="640.192752" y="296.172394" style="fill: #ff0000; stroke: #000000"/>
     <use xlink:href="#m572e2aaaa9" x="657.533716" y="310.244291" style="fill: #ff0000; stroke: #000000"/>
     <use xlink:href="#m572e2aaaa9" x="674.874679" y="317.280239" style="fill: #ff0000; stroke: #000000"/>
     <use xlink:href="#m572e2aaaa9" x="692.215642" y="331.352136" style="fill: #ff0000; stroke: #000000"/>
    </g>
   </g>
   <g id="patch_3">
    <path d="M 50.6 387.16 
L 50.6 39.84 
" style="fill: none; stroke: #000000; stroke-width: 0.8; stroke-linejoin: miter; stroke-linecap: square"/>
   </g>
   <g id="patch_4">
    <path d="M 706.088413 387.16 
L 706.088413 39.84 
" style="fill: none; stroke: #000000; stroke-width: 0.8; stroke-linejoin: miter; stroke-linecap: square"/>
   </g>
   <g id="patch_5">
    <path d="M 50.6 387.16 
L 706.088413 387.16 
" style="fill: none; stroke: #000000; stroke-width: 0.8; stroke-linejoin: miter; stroke-linecap: square"/>
   </g>
   <g id="patch_6">
    <path d="M 50.6 39.84 
L 706.088413 39.84 
" style="fill: none; stroke: #000000; stroke-width: 0.8; stroke-linejoin: miter; stroke-linecap: square"/>
   </g>
   <g id="text_14">
    <g id="patch_7">
     <path d="M 480.61631 241.687533 
L 603.81631 241.687533 
Q 608.81631 241.687533 608.81631 236.687533 
L 608.81631 215.811595 
Q 608.81631 210.811595 603.81631 210.811595 
L 480.61631 210.811595 
Q 475.61631 210.811595 475.61631 215.811595 
L 475.61631 236.687533 
Q 475.61631 241.687533 480.61631 241.687533 
z
" style="fill: #ffffff; stroke: #808080; stroke-linejoin: miter"/>
    </g>
    <!-- Время зарядки: 2.59 с -->
    <g style="fill: #006400" transform="translate(483.790528 223.410033) scale(0.1 -0.1)">
     <defs>
      <path id="DejaVuSans-437" d="M 2206 1888 
Q 2594 1813 2809 1584 
Q 3025 1356 3025 1019 
Q 3025 478 2622 193 
Q 2219 -91 1475 -91 
Q 1225 -91 961 -47 
Q 697 -3 416 84 
L 416 619 
Q 638 503 903 445 
Q 1169 388 1459 388 
Q 1931 388 2195 563 
Q 2459 738 2459 1019 
Q 2459 1294 2225 1461 
Q 1991 1628 1563 1628 
L 1100 1628 
L 1100 2103 
L 1584 2103 
Q 1947 2103 2158 2242 
Q 2369 2381 2369 2600 
Q 2369 2800 2151 2944 
Q 1934 3088 1563 3088 
Q 1341 3088 1089 3047 
Q 838 3006 534 2916 
L 534 3438 
Q 841 3513 1106 3550 
Q 1372 3588 1609 3588 
Q 2222 3588 2576 3342 
Q 2931 3097 2931 2656 
Q 2931 2366 2743 2164 
Q 2556 1963 2206 1888 
z
" transform="scale(0.015625)"/>
      <path id="DejaVuSans-434" d="M 1384 459 
L 3053 459 
L 3053 3041 
L 1844 3041 
L 1844 2603 
Q 1844 1316 1475 628 
L 1384 459 
z
M 550 459 
Q 834 584 959 850 
Q 1266 1509 1266 2838 
L 1266 3500 
L 3631 3500 
L 3631 459 
L 4091 459 
L 4091 -884 
L 3631 -884 
L 3631 0 
L 794 0 
L 794 -884 
L 334 -884 
L 334 459 
L 550 459 
z
" transform="scale(0.015625)"/>
      <path id="DejaVuSans-43a" d="M 581 3500 
L 1153 3500 
L 1153 1856 
L 2775 3500 
L 3481 3500 
L 2144 2147 
L 3653 0 
L 3009 0 
L 1769 1766 
L 1153 1141 
L 1153 0 
L 581 0 
L 581 3500 
z
" transform="scale(0.015625)"/>
      <path id="DejaVuSans-3a" d="M 750 794 
L 1409 794 
L 1409 0 
L 750 0 
L 750 794 
z
M 750 3309 
L 1409 3309 
L 1409 2516 
L 750 2516 
L 750 3309 
z
" transform="scale(0.015625)"/>
      <path id="DejaVuSans-39" d="M 703 97 
L 703 672 
Q 941 559 1184 500 
Q 1428 441 1663 441 
Q 2288 441 2617 861 
Q 2947 1281 2994 2138 
Q 2813 1869 2534 1725 
Q 2256 1581 1919 1581 
Q 1219 1581 811 2004 
Q 403 2428 403 3163 
Q 403 3881 828 4315 
Q 1253 4750 1959 4750 
Q 2769 4750 3195 4129 
Q 3622 3509 3622 2328 
Q 3622 1225 3098 567 
Q 2575 -91 1691 -91 
Q 1453 -91 1209 -44 
Q 966 3 703 97 
z
M 1959 2075 
Q 2384 2075 2632 2365 
Q 2881 2656 2881 3163 
Q 2881 3666 2632 3958 
Q 2384 4250 1959 4250 
Q 1534 4250 1286 3958 
Q 1038 3666 1038 3163 
Q 1038 2656 1286 2365 
Q 1534 2075 1959 2075 
z
" transform="scale(0.015625)"/>
     </defs>
     <use xlink:href="#DejaVuSans-412"/>
     <use xlink:href="#DejaVuSans-440" transform="translate(68.603516 0)"/>
     <use xlink:href="#DejaVuSans-435" transform="translate(132.080078 0)"/>
     <use xlink:href="#DejaVuSans-43c" transform="translate(193.603516 0)"/>
     <use xlink:href="#DejaVuSans-44f" transform="translate(269.042969 0)"/>
     <use xlink:href="#DejaVuSans-20" transform="translate(329.199219 0)"/>
     <use xlink:href="#DejaVuSans-437" transform="translate(360.986328 0)"/>
     <use xlink:href="#DejaVuSans-430" transform="translate(414.160156 0)"/>
     <use xlink:href="#DejaVuSans-440" transform="translate(475.439453 0)"/>
     <use xlink:href="#DejaVuSans-44f" transform="translate(538.916016 0)"/>
     <use xlink:href="#DejaVuSans-434" transform="translate(599.072266 0)"/>
     <use xlink:href="#DejaVuSans-43a" transform="translate(668.212891 0)"/>
     <use xlink:href="#DejaVuSans-438" transform="translate(728.613281 0)"/>
     <use xlink:href="#DejaVuSans-3a" transform="translate(793.603516 0)"/>
     <use xlink:href="#DejaVuSans-20" transform="translate(827.294922 0)"/>
     <use xlink:href="#DejaVuSans-32" transform="translate(859.082031 0)"/>
     <use xlink:href="#DejaVuSans-2e" transform="translate(922.705078 0)"/>
     <use xlink:href="#DejaVuSans-35" transform="translate(954.492188 0)"/>
     <use xlink:href="#DejaVuSans-39" transform="translate(1018.115234 0)"/>
     <use xlink:href="#DejaVuSans-20" transform="translate(1081.738281 0)"/>
     <use xlink:href="#DejaVuSans-441" transform="translate(1113.525391 0)"/>
    </g>
    <!-- Время разрядки: 2.41 с -->
    <g style="fill: #006400" transform="translate(480.61631 234.607845) scale(0.1 -0.1)">
     <use xlink:href="#DejaVuSans-412"/>
     <use xlink:href="#DejaVuSans-440" transform="translate(68.603516 0)"/>
     <use xlink:href="#DejaVuSans-435" transform="translate(132.080078 0)"/>
     <use xlink:href="#DejaVuSans-43c" transform="translate(193.603516 0)"/>
     <use xlink:href="#DejaVuSans-44f" transform="translate(269.042969 0)"/>
     <use xlink:href="#DejaVuSans-20" transform="translate(329.199219 0)"/>
     <use xlink:href="#DejaVuSans-440" transform="translate(360.986328 0)"/>
     <use xlink:href="#DejaVuSans-430" transform="translate(424.462891 0)"/>
     <use xlink:href="#DejaVuSans-437" transform="translate(485.742188 0)"/>
     <use xlink:href="#DejaVuSans-440" transform="translate(538.916016 0)"/>
     <use xlink:href="#DejaVuSans-44f" transform="translate(602.392578 0)"/>
     <use xlink:href="#DejaVuSans-434" transform="translate(662.548828 0)"/>
     <use xlink:href="#DejaVuSans-43a" transform="translate(731.689453 0)"/>
     <use xlink:href="#DejaVuSans-438" transform="translate(792.089844 0)"/>
     <use xlink:href="#DejaVuSans-3a" transform="translate(857.080078 0)"/>
     <use xlink:href="#DejaVuSans-20" transform="translate(890.771484 0)"/>
     <use xlink:href="#DejaVuSans-32" transform="translate(922.558594 0)"/>
     <use xlink:href="#DejaVuSans-2e" transform="translate(986.181641 0)"/>
     <use xlink:href="#DejaVuSans-34" transform="translate(1017.96875 0)"/>
     <use xlink:href="#DejaVuSans-31" transform="translate(1081.591797 0)"/>
     <use xlink:href="#DejaVuSans-20" transform="translate(1145.214844 0)"/>
     <use xlink:href="#DejaVuSans-441" transform="translate(1177.001953 0)"/>
    </g>
   </g>
   <g id="text_15">
    <!-- График зависимости напряжения на конденсаторе от -->
    <g transform="translate(205.761706 22.22625) scale(0.12 -0.12)">
     <defs>
      <path id="DejaVuSans-413" d="M 628 0 
L 628 4666 
L 3531 4666 
L 3531 4134 
L 1259 4134 
L 1259 0 
L 628 0 
z
" transform="scale(0.015625)"/>
      <path id="DejaVuSans-444" d="M 947 1747 
Q 947 1013 1173 702 
Q 1400 391 1784 391 
Q 2091 391 2447 916 
L 2447 2578 
Q 2091 3103 1784 3103 
Q 1400 3103 1173 2792 
Q 947 2481 947 1747 
z
M 2447 -1331 
L 2447 447 
Q 2269 153 2064 31 
Q 1859 -91 1600 -91 
Q 1078 -91 714 392 
Q 350 875 350 1734 
Q 350 2594 714 3089 
Q 1078 3584 1600 3584 
Q 1859 3584 2064 3465 
Q 2269 3347 2447 3053 
L 2447 4666 
L 3025 4666 
L 3025 3053 
Q 3203 3347 3408 3465 
Q 3613 3584 3872 3584 
Q 4394 3584 4758 3089 
Q 5122 2594 5122 1734 
Q 5122 875 4758 392 
Q 4394 -91 3872 -91 
Q 3613 -91 3408 31 
Q 3203 153 3025 447 
L 3025 -1331 
L 2447 -1331 
z
M 4525 1747 
Q 4525 2481 4298 2792 
Q 4072 3103 3688 3103 
Q 3381 3103 3025 2578 
L 3025 916 
Q 3381 391 3688 391 
Q 4072 391 4298 702 
Q 4525 1013 4525 1747 
z
" transform="scale(0.015625)"/>
      <path id="DejaVuSans-432" d="M 1156 1613 
L 1156 459 
L 1975 459 
Q 2369 459 2575 607 
Q 2781 756 2781 1038 
Q 2781 1319 2575 1466 
Q 2369 1613 1975 1613 
L 1156 1613 
z
M 1156 3041 
L 1156 2072 
L 1913 2072 
Q 2238 2072 2444 2201 
Q 2650 2331 2650 2563 
Q 2650 2794 2444 2917 
Q 2238 3041 1913 3041 
L 1156 3041 
z
M 581 3500 
L 1950 3500 
Q 2566 3500 2897 3275 
Q 3228 3050 3228 2634 
Q 3228 2313 3059 2123 
Q 2891 1934 2559 1888 
Q 2956 1813 3175 1575 
Q 3394 1338 3394 981 
Q 3394 513 3033 256 
Q 2672 0 2003 0 
L 581 0 
L 581 3500 
z
" transform="scale(0.015625)"/>
      <path id="DejaVuSans-43e" d="M 1959 3097 
Q 1497 3097 1228 2736 
Q 959 2375 959 1747 
Q 959 1119 1226 758 
Q 1494 397 1959 397 
Q 2419 397 2687 759 
Q 2956 1122 2956 1747 
Q 2956 2369 2687 2733 
Q 2419 3097 1959 3097 
z
M 1959 3584 
Q 2709 3584 3137 3096 
Q 3566 2609 3566 1747 
Q 3566 888 3137 398 
Q 2709 -91 1959 -91 
Q 1206 -91 779 398 
Q 353 888 353 1747 
Q 353 2609 779 3096 
Q 1206 3584 1959 3584 
z
" transform="scale(0.015625)"/>
      <path id="DejaVuSans-442" d="M 188 3500 
L 3541 3500 
L 3541 3041 
L 2147 3041 
L 2147 0 
L 1581 0 
L 1581 3041 
L 188 3041 
L 188 3500 
z
" transform="scale(0.015625)"/>
     </defs>
     <use xlink:href="#DejaVuSans-413"/>
     <use xlink:href="#DejaVuSans-440" transform="translate(60.986328 0)"/>
     <use xlink:href="#DejaVuSans-430" transform="translate(124.462891 0)"/>
     <use xlink:href="#DejaVuSans-444" transform="translate(185.742188 0)"/>
     <use xlink:href="#DejaVuSans-438" transform="translate(271.240234 0)"/>
     <use xlink:href="#DejaVuSans-43a" transform="translate(336.230469 0)"/>
     <use xlink:href="#DejaVuSans-20" transform="translate(396.630859 0)"/>
     <use xlink:href="#DejaVuSans-437" transform="translate(428.417969 0)"/>
     <use xlink:href="#DejaVuSans-430" transform="translate(481.591797 0)"/>
     <use xlink:href="#DejaVuSans-432" transform="translate(542.871094 0)"/>
     <use xlink:href="#DejaVuSans-438" transform="translate(601.806641 0)"/>
     <use xlink:href="#DejaVuSans-441" transform="translate(666.796875 0)"/>
     <use xlink:href="#DejaVuSans-438" transform="translate(721.777344 0)"/>
     <use xlink:href="#DejaVuSans-43c" transform="translate(786.767578 0)"/>
     <use xlink:href="#DejaVuSans-43e" transform="translate(862.207031 0)"/>
     <use xlink:href="#DejaVuSans-441" transform="translate(923.388672 0)"/>
     <use xlink:href="#DejaVuSans-442" transform="translate(978.369141 0)"/>
     <use xlink:href="#DejaVuSans-438" transform="translate(1036.621094 0)"/>
     <use xlink:href="#DejaVuSans-20" transform="translate(1101.611328 0)"/>
     <use xlink:href="#DejaVuSans-43d" transform="translate(1133.398438 0)"/>
     <use xlink:href="#DejaVuSans-430" transform="translate(1198.779297 0)"/>
     <use xlink:href="#DejaVuSans-43f" transform="translate(1260.058594 0)"/>
     <use xlink:href="#DejaVuSans-440" transform="translate(1325.439453 0)"/>
     <use xlink:href="#DejaVuSans-44f" transform="translate(1388.916016 0)"/>
     <use xlink:href="#DejaVuSans-436" transform="translate(1449.072266 0)"/>
     <use xlink:href="#DejaVuSans-435" transform="translate(1539.160156 0)"/>
     <use xlink:href="#DejaVuSans-43d" transform="translate(1600.683594 0)"/>
     <use xlink:href="#DejaVuSans-438" transform="translate(1666.064453 0)"/>
     <use xlink:href="#DejaVuSans-44f" transform="translate(1731.054688 0)"/>
     <use xlink:href="#DejaVuSans-20" transform="translate(1791.210938 0)"/>
     <use xlink:href="#DejaVuSans-43d" transform="translate(1822.998047 0)"/>
     <use xlink:href="#DejaVuSans-430" transform="translate(1888.378906 0)"/>
     <use xlink:href="#DejaVuSans-20" transform="translate(1949.658203 0)"/>
     <use xlink:href="#DejaVuSans-43a" transform="translate(1981.445312 0)"/>
     <use xlink:href="#DejaVuSans-43e" transform="translate(2041.845703 0)"/>
     <use xlink:href="#DejaVuSans-43d" transform="translate(2103.027344 0)"/>
     <use xlink:href="#DejaVuSans-434" transform="translate(2168.408203 0)"/>
     <use xlink:href="#DejaVuSans-435" transform="translate(2237.548828 0)"/>
     <use xlink:href="#DejaVuSans-43d" transform="translate(2299.072266 0)"/>
     <use xlink:href="#DejaVuSans-441" transform="translate(2364.453125 0)"/>
     <use xlink:href="#DejaVuSans-430" transform="translate(2419.433594 0)"/>
     <use xlink:href="#DejaVuSans-442" transform="translate(2480.712891 0)"/>
     <use xlink:href="#DejaVuSans-43e" transform="translate(2538.964844 0)"/>
     <use xlink:href="#DejaVuSans-440" transform="translate(2600.146484 0)"/>
     <use xlink:href="#DejaVuSans-435" transform="translate(2663.623047 0)"/>
     <use xlink:href="#DejaVuSans-20" transform="translate(2725.146484 0)"/>
     <use xlink:href="#DejaVuSans-43e" transform="translate(2756.933594 0)"/>
     <use xlink:href="#DejaVuSans-442" transform="translate(2818.115234 0)"/>
    </g>
    <!-- времени в RC-цепи при зарядке и разрядке -->
    <g transform="translate(239.629831 35.663625) scale(0.12 -0.12)">
     <defs>
      <path id="DejaVuSans-52" d="M 2841 2188 
Q 3044 2119 3236 1894 
Q 3428 1669 3622 1275 
L 4263 0 
L 3584 0 
L 2988 1197 
Q 2756 1666 2539 1819 
Q 2322 1972 1947 1972 
L 1259 1972 
L 1259 0 
L 628 0 
L 628 4666 
L 2053 4666 
Q 2853 4666 3247 4331 
Q 3641 3997 3641 3322 
Q 3641 2881 3436 2590 
Q 3231 2300 2841 2188 
z
M 1259 4147 
L 1259 2491 
L 2053 2491 
Q 2509 2491 2742 2702 
Q 2975 2913 2975 3322 
Q 2975 3731 2742 3939 
Q 2509 4147 2053 4147 
L 1259 4147 
z
" transform="scale(0.015625)"/>
      <path id="DejaVuSans-43" d="M 4122 4306 
L 4122 3641 
Q 3803 3938 3442 4084 
Q 3081 4231 2675 4231 
Q 1875 4231 1450 3742 
Q 1025 3253 1025 2328 
Q 1025 1406 1450 917 
Q 1875 428 2675 428 
Q 3081 428 3442 575 
Q 3803 722 4122 1019 
L 4122 359 
Q 3791 134 3420 21 
Q 3050 -91 2638 -91 
Q 1578 -91 968 557 
Q 359 1206 359 2328 
Q 359 3453 968 4101 
Q 1578 4750 2638 4750 
Q 3056 4750 3426 4639 
Q 3797 4528 4122 4306 
z
" transform="scale(0.015625)"/>
      <path id="DejaVuSans-2d" d="M 313 2009 
L 1997 2009 
L 1997 1497 
L 313 1497 
L 313 2009 
z
" transform="scale(0.015625)"/>
      <path id="DejaVuSans-446" d="M 3603 0 
L 581 0 
L 581 3500 
L 1159 3500 
L 1159 459 
L 3025 459 
L 3025 3500 
L 3603 3500 
L 3603 459 
L 4063 459 
L 4063 -884 
L 3603 -884 
L 3603 0 
z
" transform="scale(0.015625)"/>
     </defs>
     <use xlink:href="#DejaVuSans-432"/>
     <use xlink:href="#DejaVuSans-440" transform="translate(58.935547 0)"/>
     <use xlink:href="#DejaVuSans-435" transform="translate(122.412109 0)"/>
     <use xlink:href="#DejaVuSans-43c" transform="translate(183.935547 0)"/>
     <use xlink:href="#DejaVuSans-435" transform="translate(259.375 0)"/>
     <use xlink:href="#DejaVuSans-43d" transform="translate(320.898438 0)"/>
     <use xlink:href="#DejaVuSans-438" transform="translate(386.279297 0)"/>
     <use xlink:href="#DejaVuSans-20" transform="translate(451.269531 0)"/>
     <use xlink:href="#DejaVuSans-432" transform="translate(483.056641 0)"/>
     <use xlink:href="#DejaVuSans-20" transform="translate(541.992188 0)"/>
     <use xlink:href="#DejaVuSans-52" transform="translate(573.779297 0)"/>
     <use xlink:href="#DejaVuSans-43" transform="translate(638.261719 0)"/>
     <use xlink:href="#DejaVuSans-2d" transform="translate(708.085938 0)"/>
     <use xlink:href="#DejaVuSans-446" transform="translate(744.169922 0)"/>
     <use xlink:href="#DejaVuSans-435" transform="translate(812.236328 0)"/>
     <use xlink:href="#DejaVuSans-43f" transform="translate(873.759766 0)"/>
     <use xlink:href="#DejaVuSans-438" transform="translate(939.140625 0)"/>
     <use xlink:href="#DejaVuSans-20" transform="translate(1004.130859 0)"/>
     <use xlink:href="#DejaVuSans-43f" transform="translate(1035.917969 0)"/>
     <use xlink:href="#DejaVuSans-440" transform="translate(1101.298828 0)"/>
     <use xlink:href="#DejaVuSans-438" transform="translate(1164.775391 0)"/>
     <use xlink:href="#DejaVuSans-20" transform="translate(1229.765625 0)"/>
     <use xlink:href="#DejaVuSans-437" transform="translate(1261.552734 0)"/>
     <use xlink:href="#DejaVuSans-430" transform="translate(1314.726562 0)"/>
     <use xlink:href="#DejaVuSans-440" transform="translate(1376.005859 0)"/>
     <use xlink:href="#DejaVuSans-44f" transform="translate(1439.482422 0)"/>
     <use xlink:href="#DejaVuSans-434" transform="translate(1499.638672 0)"/>
     <use xlink:href="#DejaVuSans-43a" transform="translate(1568.779297 0)"/>
     <use xlink:href="#DejaVuSans-435" transform="translate(1629.179688 0)"/>
     <use xlink:href="#DejaVuSans-20" transform="translate(1690.703125 0)"/>
     <use xlink:href="#DejaVuSans-438" transform="translate(1722.490234 0)"/>
     <use xlink:href="#DejaVuSans-20" transform="translate(1787.480469 0)"/>
     <use xlink:href="#DejaVuSans-440" transform="translate(1819.267578 0)"/>
     <use xlink:href="#DejaVuSans-430" transform="translate(1882.744141 0)"/>
     <use xlink:href="#DejaVuSans-437" transform="translate(1944.023438 0)"/>
     <use xlink:href="#DejaVuSans-440" transform="translate(1997.197266 0)"/>
     <use xlink:href="#DejaVuSans-44f" transform="translate(2060.673828 0)"/>
     <use xlink:href="#DejaVuSans-434" transform="translate(2120.830078 0)"/>
     <use xlink:href="#DejaVuSans-43a" transform="translate(2189.970703 0)"/>
     <use xlink:href="#DejaVuSans-435" transform="translate(2250.371094 0)"/>
    </g>
   </g>
   <g id="legend_1">
    <g id="patch_8">
     <path d="M 648.52435 62.518125 
L 699.088413 62.518125 
Q 701.088413 62.518125 701.088413 60.518125 
L 701.088413 46.84 
Q 701.088413 44.84 699.088413 44.84 
L 648.52435 44.84 
Q 646.52435 44.84 646.52435 46.84 
L 646.52435 60.518125 
Q 646.52435 62.518125 648.52435 62.518125 
z
" style="fill: #ffffff; opacity: 0.8; stroke: #cccccc; stroke-linejoin: miter"/>
    </g>
    <g id="line2d_104">
     <path d="M 650.52435 52.938438 
L 660.52435 52.938438 
L 670.52435 52.938438 
" style="fill: none; stroke: #0000ff; stroke-width: 2; stroke-linecap: square"/>
     <g>
      <use xlink:href="#m572e2aaaa9" x="660.52435" y="52.938438" style="fill: #ff0000; stroke: #000000"/>
     </g>
    </g>
    <g id="text_16">
     <!-- V(t) -->
     <g transform="translate(678.52435 56.438438) scale(0.1 -0.1)">
      <defs>
       <path id="DejaVuSans-56" d="M 1831 0 
L 50 4666 
L 709 4666 
L 2188 738 
L 3669 4666 
L 4325 4666 
L 2547 0 
L 1831 0 
z
" transform="scale(0.015625)"/>
       <path id="DejaVuSans-28" d="M 1984 4856 
Q 1566 4138 1362 3434 
Q 1159 2731 1159 2009 
Q 1159 1288 1364 580 
Q 1569 -128 1984 -844 
L 1484 -844 
Q 1016 -109 783 600 
Q 550 1309 550 2009 
Q 550 2706 781 3412 
Q 1013 4119 1484 4856 
L 1984 4856 
z
" transform="scale(0.015625)"/>
       <path id="DejaVuSans-74" d="M 1172 4494 
L 1172 3500 
L 2356 3500 
L 2356 3053 
L 1172 3053 
L 1172 1153 
Q 1172 725 1289 603 
Q 1406 481 1766 481 
L 2356 481 
L 2356 0 
L 1766 0 
Q 1100 0 847 248 
Q 594 497 594 1153 
L 594 3053 
L 172 3053 
L 172 3500 
L 594 3500 
L 594 4494 
L 1172 4494 
z
" transform="scale(0.015625)"/>
       <path id="DejaVuSans-29" d="M 513 4856 
L 1013 4856 
Q 1481 4119 1714 3412 
Q 1947 2706 1947 2009 
Q 1947 1309 1714 600 
Q 1481 -109 1013 -844 
L 513 -844 
Q 928 -128 1133 580 
Q 1338 1288 1338 2009 
Q 1338 2731 1133 3434 
Q 928 4138 513 4856 
z
" transform="scale(0.015625)"/>
      </defs>
      <use xlink:href="#DejaVuSans-56"/>
      <use xlink:href="#DejaVuSans-28" transform="translate(68.408203 0)"/>
      <use xlink:href="#DejaVuSans-74" transform="translate(107.421875 0)"/>
      <use xlink:href="#DejaVuSans-29" transform="translate(146.630859 0)"/>
     </g>
    </g>
   </g>
  </g>
 </g>
 <defs>
  <clipPath id="p9a3072e52d">
   <rect x="50.6" y="39.84" width="655.488413" height="347.32"/>
  </clipPath>
 </defs>
</svg>
